%TF.GenerationSoftware,KiCad,Pcbnew,9.0.1*%
%TF.CreationDate,2025-04-20T12:39:59+07:00*%
%TF.ProjectId,IREC-FlighComputer,49524543-2d46-46c6-9967-68436f6d7075,rev?*%
%TF.SameCoordinates,Original*%
%TF.FileFunction,Plated,1,4,PTH,Mixed*%
%TF.FilePolarity,Positive*%
%FSLAX46Y46*%
G04 Gerber Fmt 4.6, Leading zero omitted, Abs format (unit mm)*
G04 Created by KiCad (PCBNEW 9.0.1) date 2025-04-20 12:39:59*
%MOMM*%
%LPD*%
G01*
G04 APERTURE LIST*
%TA.AperFunction,ViaDrill*%
%ADD10C,0.300000*%
%TD*%
%TA.AperFunction,ComponentDrill*%
%ADD11C,0.300000*%
%TD*%
G04 aperture for slot hole*
%TA.AperFunction,ComponentDrill*%
%ADD12C,0.650000*%
%TD*%
%TA.AperFunction,ComponentDrill*%
%ADD13C,0.890000*%
%TD*%
%TA.AperFunction,ComponentDrill*%
%ADD14C,1.000000*%
%TD*%
%TA.AperFunction,ComponentDrill*%
%ADD15C,1.020000*%
%TD*%
%TA.AperFunction,ComponentDrill*%
%ADD16C,1.397000*%
%TD*%
%TA.AperFunction,ComponentDrill*%
%ADD17C,1.498600*%
%TD*%
%TA.AperFunction,ComponentDrill*%
%ADD18C,3.200000*%
%TD*%
G04 APERTURE END LIST*
D10*
X106399996Y-94699999D03*
X106399996Y-96600000D03*
X106399996Y-100399998D03*
X106399996Y-102299999D03*
X109199998Y-91899997D03*
X109199998Y-105100001D03*
X111100000Y-93500000D03*
X112999998Y-93499998D03*
X114899997Y-91899997D03*
X116799998Y-91899997D03*
X116799998Y-105100001D03*
X119600000Y-94699999D03*
X119600000Y-102299999D03*
X130550000Y-59960000D03*
X130550000Y-78260000D03*
X132800000Y-71530000D03*
X133750000Y-71250000D03*
X134700000Y-66562500D03*
X136700000Y-71397500D03*
X137215000Y-107500000D03*
X138010000Y-69312500D03*
X138240000Y-95170000D03*
X139290000Y-94402500D03*
X140000000Y-69312500D03*
X140400000Y-113700000D03*
X141650000Y-69312500D03*
X141900000Y-71430000D03*
X143100000Y-108500000D03*
X143902500Y-88800000D03*
X143975000Y-84975000D03*
X143975000Y-86425000D03*
X144100000Y-92600000D03*
X144200000Y-90500000D03*
X144330000Y-80900000D03*
X144800000Y-76100000D03*
X144900000Y-67962500D03*
X145130000Y-59860000D03*
X145130000Y-78360000D03*
X145200000Y-71397500D03*
X145400000Y-93000000D03*
X145600000Y-105900000D03*
X145825000Y-86425000D03*
X146200000Y-73532500D03*
X146265000Y-88800000D03*
X146300000Y-94400000D03*
X146985340Y-91100000D03*
X147400000Y-88800000D03*
X147422626Y-90411095D03*
X147960000Y-86563953D03*
X148200000Y-110300000D03*
X148500000Y-79300000D03*
X148700000Y-83400000D03*
X148700000Y-84535000D03*
X148700000Y-85800000D03*
X149100000Y-100600000D03*
X149345000Y-73000000D03*
X149580000Y-105500000D03*
X149580000Y-106500000D03*
X149665000Y-99365000D03*
X150100000Y-101635000D03*
X150300000Y-95300000D03*
X150480000Y-73000000D03*
X150600000Y-106500000D03*
X150667500Y-79300000D03*
X150800000Y-99400000D03*
X150900000Y-110300000D03*
X151000000Y-102750000D03*
X151500000Y-75750000D03*
X151650000Y-69100000D03*
X151900000Y-91700000D03*
X151900000Y-96500000D03*
X151940000Y-82280000D03*
X152402500Y-106807500D03*
X152600000Y-88800000D03*
X152965000Y-73000000D03*
X152965000Y-74100000D03*
X153300000Y-72062500D03*
X154000000Y-67000000D03*
X154100000Y-73000000D03*
X154287500Y-69850000D03*
X154300000Y-101400000D03*
X154529843Y-82870157D03*
X155200000Y-79000000D03*
X155342500Y-68092500D03*
X155400000Y-66900000D03*
X155900000Y-105202500D03*
X156050000Y-99500000D03*
X156168753Y-83731247D03*
X156652108Y-78727123D03*
X157500000Y-105600000D03*
X157588000Y-101790000D03*
X157588000Y-108140000D03*
X157588000Y-109410000D03*
X158300000Y-77050000D03*
X158495000Y-100300000D03*
X159685735Y-72085735D03*
X159710000Y-59960000D03*
X160084485Y-82249525D03*
X160800000Y-79300000D03*
X160800000Y-90500000D03*
X160900000Y-106400000D03*
X161400000Y-84600000D03*
X161400000Y-103900000D03*
X162300000Y-79400000D03*
X162300000Y-95100000D03*
X162600000Y-83250000D03*
X163000000Y-100700000D03*
X163012000Y-103060000D03*
X163012000Y-106870000D03*
X163200000Y-88500000D03*
X163250000Y-92750000D03*
X163250000Y-93750000D03*
X163500000Y-68000000D03*
X163700000Y-84600000D03*
X164000000Y-88500000D03*
X164006456Y-82213130D03*
X164700000Y-93700000D03*
X164750000Y-85850000D03*
X164870000Y-103452500D03*
X164870000Y-104647500D03*
X165700000Y-97767500D03*
X165900000Y-107000000D03*
X166100000Y-110400000D03*
X166120000Y-104627500D03*
X166365000Y-81400000D03*
X166600000Y-97000000D03*
X166750000Y-102000000D03*
X167000000Y-99200000D03*
X167500000Y-81400000D03*
X167520806Y-87150000D03*
X167750000Y-101800000D03*
X167870000Y-76400000D03*
X167880000Y-79400000D03*
X167880000Y-80400000D03*
X167890000Y-75400000D03*
X168082185Y-87650000D03*
X168177341Y-85544841D03*
X168200000Y-84432500D03*
X168300000Y-110400000D03*
X168550000Y-95120425D03*
X168830332Y-87830332D03*
X168900000Y-79400000D03*
X168900000Y-82550000D03*
X168901495Y-88660000D03*
X169000000Y-99500000D03*
X169200000Y-102100000D03*
X169400000Y-83050000D03*
X169800000Y-83600000D03*
X170180000Y-97000000D03*
X170200000Y-96125000D03*
X170450000Y-84150000D03*
X170650000Y-81050000D03*
X171280021Y-84160019D03*
X171500000Y-87100000D03*
X171590000Y-95610000D03*
X171700000Y-83600000D03*
X171800018Y-101260000D03*
X171801748Y-85601748D03*
X172015000Y-107400000D03*
X172100000Y-80000000D03*
X172366336Y-85066336D03*
X172725003Y-98525003D03*
X172800000Y-78900000D03*
X172844238Y-97724999D03*
X173000000Y-93000000D03*
X173351748Y-84051748D03*
X173396489Y-82400000D03*
X173570000Y-99520000D03*
X173580000Y-101290000D03*
X173780000Y-87900000D03*
X173790000Y-86700000D03*
X173800000Y-81000000D03*
X173900000Y-78900000D03*
X174032500Y-85700000D03*
X174100000Y-80000000D03*
X174400000Y-80700000D03*
X174430000Y-99302500D03*
X174480000Y-92200000D03*
X174800000Y-87900000D03*
X174810000Y-86700000D03*
X175088817Y-82189001D03*
X175167500Y-85700000D03*
X175300000Y-76600000D03*
X175300000Y-95765000D03*
X175365000Y-94600000D03*
X175450000Y-99325000D03*
X175600000Y-79300000D03*
X175642500Y-92380000D03*
X175900000Y-80600000D03*
X175900000Y-81400000D03*
X176300000Y-77000000D03*
X176500000Y-94600000D03*
X176510000Y-89260000D03*
X176510000Y-90397500D03*
X176600000Y-87900000D03*
X176750000Y-103250000D03*
X176777500Y-92380000D03*
X176800000Y-76400000D03*
X177000000Y-99250000D03*
X177300000Y-81000000D03*
X177700000Y-87900000D03*
X177900000Y-78349000D03*
X178000000Y-101682500D03*
X178120000Y-89100000D03*
X178300000Y-92300000D03*
X178300000Y-93100000D03*
X178400000Y-77800000D03*
X178441250Y-83808750D03*
X178800000Y-87935000D03*
X180100000Y-80000000D03*
X180100000Y-81000000D03*
X180305000Y-105750000D03*
X180587500Y-100087500D03*
X180615000Y-96750000D03*
X181067500Y-85300000D03*
X182500000Y-104100000D03*
X183400000Y-99800000D03*
X183885000Y-96750000D03*
X185300000Y-99900000D03*
X186765000Y-99800000D03*
X186765000Y-101300000D03*
X187000000Y-105400000D03*
X187500000Y-96000000D03*
X187900000Y-104800000D03*
X188055000Y-63660000D03*
X188300000Y-89600000D03*
X188300000Y-90700000D03*
X189000000Y-92000000D03*
X189300000Y-86532500D03*
X189300000Y-87667500D03*
X190500000Y-94300000D03*
X191062500Y-90180000D03*
X191900000Y-86480000D03*
X193094445Y-91938522D03*
X193337500Y-89230000D03*
X193337500Y-90180000D03*
X193337500Y-91130000D03*
X193400000Y-86482500D03*
X193400000Y-94880000D03*
X194400000Y-86500000D03*
X194500000Y-93600000D03*
X195850000Y-87000000D03*
X195850000Y-93400000D03*
D11*
%TO.C,U3*%
X179912500Y-89200000D03*
X179912500Y-90300000D03*
%TO.C,U1*%
X180247500Y-102060000D03*
X180247500Y-103240000D03*
X181427500Y-102060000D03*
X181427500Y-103240000D03*
D12*
%TO.C,USB1*%
X197362500Y-84580000D02*
X196862500Y-84580000D01*
X197362500Y-95820000D02*
X196862500Y-95820000D01*
X201562500Y-84580000D02*
X200662500Y-84580000D01*
X201562500Y-95820000D02*
X200662500Y-95820000D01*
D13*
%TO.C,LS1*%
X194000000Y-71800000D03*
X194000000Y-76800000D03*
D14*
%TO.C,J4*%
X171520000Y-66660000D03*
X171520000Y-69200000D03*
X174060000Y-66660000D03*
X174060000Y-69200000D03*
X176600000Y-66660000D03*
X176600000Y-69200000D03*
X179140000Y-66660000D03*
X179140000Y-69200000D03*
D15*
%TO.C,J8*%
X150500000Y-114000000D03*
X153500000Y-114000000D03*
%TO.C,J7*%
X161400000Y-113960000D03*
X164400000Y-113960000D03*
%TO.C,J2*%
X172200000Y-113960000D03*
X175200000Y-113960000D03*
X178200000Y-113960000D03*
%TO.C,J10*%
X186100000Y-113900000D03*
X189100000Y-113900000D03*
X192100000Y-113900000D03*
%TO.C,J1*%
X199387500Y-102278250D03*
X199387500Y-105278250D03*
D16*
%TO.C,J3*%
X118894600Y-66557100D03*
X118894600Y-71662500D03*
X124000000Y-66557100D03*
X124000000Y-71662500D03*
D17*
X121447300Y-69109800D03*
D18*
%TO.C,H2*%
X99000000Y-63000000D03*
%TO.C,H4*%
X99000000Y-114000000D03*
%TO.C,H3*%
X200000000Y-63000000D03*
%TO.C,H1*%
X200000000Y-114000000D03*
M02*
