%TF.GenerationSoftware,KiCad,Pcbnew,9.0.1*%
%TF.CreationDate,2025-04-20T12:35:35+07:00*%
%TF.ProjectId,IREC-FlighComputer,49524543-2d46-46c6-9967-68436f6d7075,rev?*%
%TF.SameCoordinates,Original*%
%TF.FileFunction,Soldermask,Bot*%
%TF.FilePolarity,Negative*%
%FSLAX46Y46*%
G04 Gerber Fmt 4.6, Leading zero omitted, Abs format (unit mm)*
G04 Created by KiCad (PCBNEW 9.0.1) date 2025-04-20 12:35:35*
%MOMM*%
%LPD*%
G01*
G04 APERTURE LIST*
G04 Aperture macros list*
%AMRoundRect*
0 Rectangle with rounded corners*
0 $1 Rounding radius*
0 $2 $3 $4 $5 $6 $7 $8 $9 X,Y pos of 4 corners*
0 Add a 4 corners polygon primitive as box body*
4,1,4,$2,$3,$4,$5,$6,$7,$8,$9,$2,$3,0*
0 Add four circle primitives for the rounded corners*
1,1,$1+$1,$2,$3*
1,1,$1+$1,$4,$5*
1,1,$1+$1,$6,$7*
1,1,$1+$1,$8,$9*
0 Add four rect primitives between the rounded corners*
20,1,$1+$1,$2,$3,$4,$5,0*
20,1,$1+$1,$4,$5,$6,$7,0*
20,1,$1+$1,$6,$7,$8,$9,0*
20,1,$1+$1,$8,$9,$2,$3,0*%
G04 Aperture macros list end*
%ADD10O,2.154000X1.254000*%
%ADD11O,1.754000X1.254000*%
%ADD12C,1.270000*%
%ADD13RoundRect,0.250001X-0.499999X-0.759999X0.499999X-0.759999X0.499999X0.759999X-0.499999X0.759999X0*%
%ADD14O,1.500000X2.020000*%
%ADD15C,2.006600*%
%ADD16C,1.905000*%
%ADD17C,5.600000*%
%ADD18C,1.602000*%
%ADD19RoundRect,0.250001X0.759999X-0.499999X0.759999X0.499999X-0.759999X0.499999X-0.759999X-0.499999X0*%
%ADD20O,2.020000X1.500000*%
%ADD21R,1.700000X1.700000*%
%ADD22C,1.700000*%
G04 APERTURE END LIST*
D10*
%TO.C,USB1*%
X201112500Y-95820000D03*
X201112500Y-84580000D03*
D11*
X197112500Y-95820000D03*
X197112500Y-84580000D03*
%TD*%
D12*
%TO.C,J8*%
X147500000Y-112040000D03*
X156500000Y-112040000D03*
D13*
X150500000Y-114000000D03*
D14*
X153500000Y-114000000D03*
%TD*%
D15*
%TO.C,J3*%
X121447300Y-69109800D03*
D16*
X118894600Y-66557100D03*
X118894600Y-71662500D03*
X124000000Y-71662500D03*
X124000000Y-66557100D03*
%TD*%
D12*
%TO.C,J10*%
X183100000Y-111940000D03*
X195100000Y-111940000D03*
D13*
X186100000Y-113900000D03*
D14*
X189100000Y-113900000D03*
X192100000Y-113900000D03*
%TD*%
D17*
%TO.C,H3*%
X200000000Y-63000000D03*
%TD*%
D12*
%TO.C,J7*%
X158400000Y-112000000D03*
X167400000Y-112000000D03*
D13*
X161400000Y-113960000D03*
D14*
X164400000Y-113960000D03*
%TD*%
D17*
%TO.C,H1*%
X200000000Y-114000000D03*
%TD*%
%TO.C,H4*%
X99000000Y-114000000D03*
%TD*%
%TO.C,H2*%
X99000000Y-63000000D03*
%TD*%
D12*
%TO.C,J2*%
X169200000Y-112000000D03*
X181200000Y-112000000D03*
D13*
X172200000Y-113960000D03*
D14*
X175200000Y-113960000D03*
X178200000Y-113960000D03*
%TD*%
D18*
%TO.C,LS1*%
X194000000Y-71800000D03*
X194000000Y-76800000D03*
%TD*%
D12*
%TO.C,J1*%
X197427500Y-108278250D03*
X197427500Y-99278250D03*
D19*
X199387500Y-105278250D03*
D20*
X199387500Y-102278250D03*
%TD*%
D21*
%TO.C,J4*%
X179140000Y-66660000D03*
D22*
X179140000Y-69200000D03*
X176600000Y-66660000D03*
X176600000Y-69200000D03*
X174060000Y-66660000D03*
X174060000Y-69200000D03*
X171520000Y-66660000D03*
X171520000Y-69200000D03*
%TD*%
M02*
