%TF.GenerationSoftware,KiCad,Pcbnew,9.0.1*%
%TF.CreationDate,2025-04-20T12:35:35+07:00*%
%TF.ProjectId,IREC-FlighComputer,49524543-2d46-46c6-9967-68436f6d7075,rev?*%
%TF.SameCoordinates,Original*%
%TF.FileFunction,Copper,L4,Bot*%
%TF.FilePolarity,Positive*%
%FSLAX46Y46*%
G04 Gerber Fmt 4.6, Leading zero omitted, Abs format (unit mm)*
G04 Created by KiCad (PCBNEW 9.0.1) date 2025-04-20 12:35:35*
%MOMM*%
%LPD*%
G01*
G04 APERTURE LIST*
G04 Aperture macros list*
%AMRoundRect*
0 Rectangle with rounded corners*
0 $1 Rounding radius*
0 $2 $3 $4 $5 $6 $7 $8 $9 X,Y pos of 4 corners*
0 Add a 4 corners polygon primitive as box body*
4,1,4,$2,$3,$4,$5,$6,$7,$8,$9,$2,$3,0*
0 Add four circle primitives for the rounded corners*
1,1,$1+$1,$2,$3*
1,1,$1+$1,$4,$5*
1,1,$1+$1,$6,$7*
1,1,$1+$1,$8,$9*
0 Add four rect primitives between the rounded corners*
20,1,$1+$1,$2,$3,$4,$5,0*
20,1,$1+$1,$4,$5,$6,$7,0*
20,1,$1+$1,$6,$7,$8,$9,0*
20,1,$1+$1,$8,$9,$2,$3,0*%
G04 Aperture macros list end*
%TA.AperFunction,HeatsinkPad*%
%ADD10C,0.500000*%
%TD*%
%TA.AperFunction,HeatsinkPad*%
%ADD11R,0.500000X1.600000*%
%TD*%
%TA.AperFunction,ComponentPad*%
%ADD12O,1.950000X1.050000*%
%TD*%
%TA.AperFunction,ComponentPad*%
%ADD13O,1.550000X1.050000*%
%TD*%
%TA.AperFunction,ComponentPad*%
%ADD14RoundRect,0.250001X-0.499999X-0.759999X0.499999X-0.759999X0.499999X0.759999X-0.499999X0.759999X0*%
%TD*%
%TA.AperFunction,ComponentPad*%
%ADD15O,1.500000X2.020000*%
%TD*%
%TA.AperFunction,ComponentPad*%
%ADD16C,2.006600*%
%TD*%
%TA.AperFunction,ComponentPad*%
%ADD17C,1.905000*%
%TD*%
%TA.AperFunction,ComponentPad*%
%ADD18C,5.600000*%
%TD*%
%TA.AperFunction,ComponentPad*%
%ADD19C,1.398000*%
%TD*%
%TA.AperFunction,HeatsinkPad*%
%ADD20R,1.680000X1.680000*%
%TD*%
%TA.AperFunction,ComponentPad*%
%ADD21RoundRect,0.250001X0.759999X-0.499999X0.759999X0.499999X-0.759999X0.499999X-0.759999X-0.499999X0*%
%TD*%
%TA.AperFunction,ComponentPad*%
%ADD22O,2.020000X1.500000*%
%TD*%
%TA.AperFunction,ComponentPad*%
%ADD23R,1.700000X1.700000*%
%TD*%
%TA.AperFunction,ComponentPad*%
%ADD24C,1.700000*%
%TD*%
%TA.AperFunction,ViaPad*%
%ADD25C,0.600000*%
%TD*%
%TA.AperFunction,ViaPad*%
%ADD26C,0.800000*%
%TD*%
%TA.AperFunction,ViaPad*%
%ADD27C,0.500000*%
%TD*%
%TA.AperFunction,Conductor*%
%ADD28C,0.200000*%
%TD*%
%TA.AperFunction,Conductor*%
%ADD29C,0.300000*%
%TD*%
%TA.AperFunction,Conductor*%
%ADD30C,0.500000*%
%TD*%
%TA.AperFunction,Conductor*%
%ADD31C,0.299370*%
%TD*%
G04 APERTURE END LIST*
D10*
%TO.P,U3,7,EP*%
%TO.N,VBAT-*%
X179912500Y-89200000D03*
D11*
X179912500Y-89750000D03*
D10*
X179912500Y-90300000D03*
%TD*%
D12*
%TO.P,USB1,1,MH1*%
%TO.N,VBAT-*%
X201112500Y-95820000D03*
%TO.P,USB1,2,MH2*%
X201112500Y-84580000D03*
D13*
%TO.P,USB1,3,MH3*%
X197112500Y-95820000D03*
%TO.P,USB1,4,MH4*%
X197112500Y-84580000D03*
%TD*%
D14*
%TO.P,J8,1,Pin_1*%
%TO.N,Net-(J8-Pin_1)*%
X150500000Y-114000000D03*
D15*
%TO.P,J8,2,Pin_2*%
%TO.N,Net-(J8-Pin_2)*%
X153500000Y-114000000D03*
%TD*%
D16*
%TO.P,J3,1,1*%
%TO.N,Net-(C49-Pad2)*%
X121447300Y-69109800D03*
D17*
%TO.P,J3,2,2*%
%TO.N,VBAT-*%
X118894600Y-66557100D03*
%TO.P,J3,3,3*%
X118894600Y-71662500D03*
%TO.P,J3,4,4*%
X124000000Y-71662500D03*
%TO.P,J3,5,5*%
X124000000Y-66557100D03*
%TD*%
D14*
%TO.P,J10,1,Pin_1*%
%TO.N,Net-(J10-Pin_1)*%
X186100000Y-113900000D03*
D15*
%TO.P,J10,2,Pin_2*%
%TO.N,VBAT-*%
X189100000Y-113900000D03*
%TO.P,J10,3,Pin_3*%
%TO.N,+5V*%
X192100000Y-113900000D03*
%TD*%
D18*
%TO.P,H3,1*%
%TO.N,N/C*%
X200000000Y-63000000D03*
%TD*%
D14*
%TO.P,J7,1,Pin_1*%
%TO.N,Net-(J7-Pin_1)*%
X161400000Y-113960000D03*
D15*
%TO.P,J7,2,Pin_2*%
%TO.N,Net-(J7-Pin_2)*%
X164400000Y-113960000D03*
%TD*%
D18*
%TO.P,H1,1*%
%TO.N,N/C*%
X200000000Y-114000000D03*
%TD*%
%TO.P,H4,1*%
%TO.N,N/C*%
X99000000Y-114000000D03*
%TD*%
%TO.P,H2,1*%
%TO.N,N/C*%
X99000000Y-63000000D03*
%TD*%
D14*
%TO.P,J2,1,Pin_1*%
%TO.N,Net-(J2-Pin_1)*%
X172200000Y-113960000D03*
D15*
%TO.P,J2,2,Pin_2*%
%TO.N,VBAT-*%
X175200000Y-113960000D03*
%TO.P,J2,3,Pin_3*%
%TO.N,+5V*%
X178200000Y-113960000D03*
%TD*%
D19*
%TO.P,LS1,1*%
%TO.N,Net-(LS1-Pad1)*%
X194000000Y-71800000D03*
%TO.P,LS1,2*%
%TO.N,VBAT-*%
X194000000Y-76800000D03*
%TD*%
D10*
%TO.P,U1,17,GND*%
%TO.N,VBAT-*%
X180247500Y-103240000D03*
X181427500Y-103240000D03*
D20*
X180837500Y-102650000D03*
D10*
X180247500Y-102060000D03*
X181427500Y-102060000D03*
%TD*%
D21*
%TO.P,J1,1,Pin_1*%
%TO.N,Net-(D1-A)*%
X199387500Y-105278250D03*
D22*
%TO.P,J1,2,Pin_2*%
%TO.N,VBAT-*%
X199387500Y-102278250D03*
%TD*%
D23*
%TO.P,J4,1,Pin_1*%
%TO.N,nRST*%
X179140000Y-66660000D03*
D24*
%TO.P,J4,2,Pin_2*%
%TO.N,SWDIO*%
X179140000Y-69200000D03*
%TO.P,J4,3,Pin_3*%
%TO.N,SWCLK*%
X176600000Y-66660000D03*
%TO.P,J4,4,Pin_4*%
%TO.N,COMPANION_RX*%
X176600000Y-69200000D03*
%TO.P,J4,5,Pin_5*%
%TO.N,BOOT0*%
X174060000Y-66660000D03*
%TO.P,J4,6,Pin_6*%
%TO.N,COMPANION_TX*%
X174060000Y-69200000D03*
%TO.P,J4,7,Pin_7*%
%TO.N,VBAT-*%
X171520000Y-66660000D03*
%TO.P,J4,8,Pin_8*%
%TO.N,+3.3V*%
X171520000Y-69200000D03*
%TD*%
D25*
%TO.N,VBAT-*%
X144330000Y-80900000D03*
X175365000Y-94600000D03*
X145400000Y-93000000D03*
D26*
X109199998Y-91899997D03*
X143100000Y-108500000D03*
D25*
X166120000Y-104627500D03*
X158495000Y-100300000D03*
X148700000Y-83400000D03*
D26*
X151650000Y-69100000D03*
X151900000Y-91700000D03*
D25*
X144900000Y-67962500D03*
D27*
X176300000Y-77000000D03*
D26*
X119600000Y-102299999D03*
X130550000Y-59960000D03*
D25*
X145825000Y-86425000D03*
D26*
X109199998Y-105100001D03*
D25*
X138010000Y-69312500D03*
X140000000Y-69312500D03*
X151000000Y-102750000D03*
X166365000Y-81400000D03*
X143975000Y-86425000D03*
X151500000Y-75750000D03*
X181067500Y-85300000D03*
X137215000Y-107500000D03*
X146200000Y-73532500D03*
X154100000Y-73000000D03*
X149345000Y-73000000D03*
X191900000Y-86480000D03*
D26*
X159710000Y-59960000D03*
D25*
X195850000Y-87000000D03*
X141900000Y-71430000D03*
X166750000Y-102000000D03*
X175300000Y-95765000D03*
D26*
X145130000Y-78360000D03*
D25*
X193337500Y-90180000D03*
X155400000Y-66900000D03*
X195850000Y-93400000D03*
D26*
X106399996Y-102299999D03*
X180615000Y-96750000D03*
X119600000Y-94699999D03*
D25*
X176777500Y-92380000D03*
X157588000Y-109410000D03*
X148700000Y-85800000D03*
D26*
X106399996Y-94699999D03*
X116799998Y-91899997D03*
X182500000Y-104100000D03*
D27*
X154287500Y-69850000D03*
D25*
X139290000Y-94402500D03*
X174480000Y-92200000D03*
X169000000Y-99500000D03*
D27*
X172800000Y-78900000D03*
D25*
X150100000Y-101635000D03*
X155900000Y-105202500D03*
X186765000Y-101300000D03*
D27*
X180100000Y-81000000D03*
D25*
X167000000Y-99200000D03*
X149580000Y-105500000D03*
X149580000Y-106500000D03*
D26*
X145130000Y-59860000D03*
D27*
X175600000Y-79300000D03*
D25*
X183400000Y-99800000D03*
X168200000Y-84432500D03*
X165700000Y-97767500D03*
X152965000Y-74100000D03*
X106399996Y-100399998D03*
X150667500Y-79300000D03*
X185300000Y-99900000D03*
X141650000Y-69312500D03*
X178300000Y-93100000D03*
X132800000Y-71530000D03*
X178000000Y-101682500D03*
X193400000Y-94880000D03*
D27*
X175167500Y-85700000D03*
D25*
X186765000Y-99800000D03*
D27*
X174400000Y-80700000D03*
D25*
X193400000Y-86482500D03*
X146265000Y-88800000D03*
X176510000Y-90397500D03*
X149665000Y-99365000D03*
X145200000Y-71397500D03*
X164870000Y-104647500D03*
X174430000Y-99302500D03*
X136700000Y-71397500D03*
D26*
X140400000Y-113700000D03*
X130550000Y-78260000D03*
X116799998Y-105100001D03*
D25*
X175450000Y-99325000D03*
X189300000Y-87667500D03*
X169200000Y-102100000D03*
X165900000Y-107000000D03*
X146300000Y-94400000D03*
D27*
%TO.N,+3.3V*%
X176800000Y-76400000D03*
D26*
X114899997Y-91899997D03*
D25*
X155342500Y-68092500D03*
D27*
X171500000Y-87100000D03*
D25*
X168177341Y-85544841D03*
D26*
X106399996Y-96600000D03*
D27*
X174810000Y-86700000D03*
D25*
X163500000Y-68000000D03*
X167880000Y-80400000D03*
X176600000Y-87900000D03*
X138240000Y-95170000D03*
X173000000Y-93000000D03*
X148500000Y-79300000D03*
X148700000Y-84535000D03*
X175642500Y-92380000D03*
X176510000Y-89260000D03*
X167890000Y-75400000D03*
X152965000Y-73000000D03*
D26*
X145600000Y-105900000D03*
D25*
X143902500Y-88800000D03*
X147960000Y-86563953D03*
X167880000Y-79400000D03*
X167870000Y-76400000D03*
X149100000Y-100600000D03*
X177000000Y-99250000D03*
D27*
X175900000Y-80600000D03*
X180100000Y-80000000D03*
D25*
X178441250Y-83808750D03*
X176500000Y-94600000D03*
X178120000Y-89100000D03*
X144800000Y-76100000D03*
X144100000Y-92600000D03*
X178300000Y-92300000D03*
X143975000Y-84975000D03*
X133750000Y-71250000D03*
X150480000Y-73000000D03*
X178800000Y-87935000D03*
D27*
X175300000Y-76600000D03*
D25*
X167750000Y-101800000D03*
X166600000Y-97000000D03*
X147400000Y-88800000D03*
X167500000Y-81400000D03*
D27*
X174800000Y-87900000D03*
D25*
X146985340Y-91100000D03*
X177700000Y-87900000D03*
X150800000Y-99400000D03*
%TO.N,BAT_LEVEL*%
X183885000Y-96750000D03*
X163250000Y-92750000D03*
%TO.N,+5V*%
X180305000Y-105750000D03*
D26*
X172015000Y-107400000D03*
X163000000Y-100700000D03*
D25*
X176750000Y-103250000D03*
D26*
X190500000Y-94300000D03*
%TO.N,VBAT+*%
X180587500Y-100087500D03*
X187000000Y-105400000D03*
X168300000Y-110400000D03*
X148200000Y-110300000D03*
X187900000Y-104800000D03*
D25*
%TO.N,VBUS*%
X194400000Y-86500000D03*
D26*
X191062500Y-90180000D03*
D25*
X189300000Y-86532500D03*
D26*
X189000000Y-92000000D03*
D25*
X194500000Y-93600000D03*
%TO.N,/PWM_PD*%
X164870000Y-103452500D03*
X157588000Y-101790000D03*
X163012000Y-106870000D03*
X157500000Y-105600000D03*
X163012000Y-103060000D03*
%TO.N,PWM_C*%
X160900000Y-106400000D03*
X160800000Y-90500000D03*
%TO.N,PYRO_B*%
X157588000Y-108140000D03*
X150600000Y-106500000D03*
X152402500Y-106807500D03*
%TO.N,PWM_D*%
X161400000Y-103900000D03*
X164750000Y-85850000D03*
%TO.N,BOOT0*%
X155200000Y-79000000D03*
%TO.N,nRST*%
X152600000Y-88800000D03*
D27*
%TO.N,SWDIO*%
X163700000Y-84600000D03*
D25*
X161400000Y-84600000D03*
X160084485Y-82249525D03*
D26*
%TO.N,Net-(J7-Pin_2)*%
X166100000Y-110400000D03*
%TO.N,Net-(J8-Pin_2)*%
X150900000Y-110300000D03*
D25*
%TO.N,BCD*%
X163250000Y-93750000D03*
X187500000Y-96000000D03*
%TO.N,MMC5983MA_SDA*%
X144200000Y-90500000D03*
X147422626Y-90411095D03*
%TO.N,EMMC_DAT7*%
X173900000Y-78900000D03*
X168830332Y-87830332D03*
%TO.N,EMMC_DAT6*%
X175088817Y-82189001D03*
D27*
X174100000Y-80000000D03*
D25*
X168901495Y-88660000D03*
D27*
X168900000Y-79400000D03*
%TO.N,EMMC_DAT5*%
X168900000Y-82550000D03*
X173800000Y-81000000D03*
D25*
X154529843Y-82870157D03*
%TO.N,PWM_Buzzer*%
X188055000Y-63660000D03*
X151940000Y-82280000D03*
D27*
%TO.N,EMMC_DAT4*%
X169800000Y-83600000D03*
D25*
X156168753Y-83731247D03*
D27*
X171700000Y-83600000D03*
D25*
%TO.N,EMMC_DAT3*%
X162600000Y-83250000D03*
D27*
X173396489Y-82400000D03*
X169400000Y-83050000D03*
%TO.N,EMMC_DAT2*%
X170650000Y-81050000D03*
X172100000Y-80000000D03*
X164006456Y-82213130D03*
%TO.N,EMMC_DAT1*%
X171801748Y-85601748D03*
X173780000Y-87900000D03*
D25*
X167520806Y-87150000D03*
X170450000Y-84150000D03*
%TO.N,EMMC_DAT0*%
X168082185Y-87650000D03*
D27*
X172366336Y-85066336D03*
D25*
X171280021Y-84160019D03*
D27*
X173790000Y-86700000D03*
D26*
%TO.N,ANT_SW*%
X154000000Y-67000000D03*
X134700000Y-66562500D03*
D25*
%TO.N,ADXL375_SDO*%
X170200000Y-96125000D03*
X172844238Y-97724999D03*
X173570000Y-99520000D03*
X168550000Y-95120425D03*
X164700000Y-93700000D03*
X173580000Y-101290000D03*
%TO.N,ADXL375_SDI*%
X172725003Y-98525003D03*
X170180000Y-97000000D03*
%TO.N,ADXL375_SCLK*%
X171590000Y-95610000D03*
%TO.N,BMI088_GYRO_INT*%
X162300000Y-95100000D03*
X171800018Y-101260000D03*
%TO.N,D+*%
X193337500Y-91130000D03*
%TO.N,USB_DN*%
X188300000Y-89600000D03*
X164000000Y-88500000D03*
%TO.N,D-*%
X193094445Y-91938522D03*
X193337500Y-89230000D03*
%TO.N,USB_DP*%
X188300000Y-90700000D03*
X163200000Y-88500000D03*
%TO.N,MS5607_MOSI*%
X156050000Y-99500000D03*
X154300000Y-101400000D03*
D27*
%TO.N,EMMC_RSTN*%
X175900000Y-81400000D03*
X177300000Y-81000000D03*
D26*
%TO.N,GNSS_Reset*%
X150300000Y-95300000D03*
X112999998Y-93499998D03*
D27*
%TO.N,EMMC_CLK*%
X177900000Y-78349000D03*
X162300000Y-79400000D03*
D26*
%TO.N,GNSS_INT*%
X111100000Y-93500000D03*
X151900000Y-96500000D03*
D25*
%TO.N,SX1262_DIO3*%
X159685735Y-72085735D03*
X153300000Y-72062500D03*
D27*
%TO.N,EMMC_CMD*%
X160800000Y-79300000D03*
X178400000Y-77800000D03*
D25*
%TO.N,SX1262_MOSI*%
X158300000Y-77050000D03*
X156652108Y-78727123D03*
D27*
%TO.N,Net-(U11-VDDI)*%
X174032500Y-85700000D03*
X173351748Y-84051748D03*
%TD*%
D28*
%TO.N,SX1262_MOSI*%
X156652108Y-78727123D02*
X158300000Y-77079232D01*
X158300000Y-77079232D02*
X158300000Y-77050000D01*
D29*
%TO.N,SX1262_DIO3*%
X159685735Y-72085735D02*
X159335735Y-72085735D01*
X159335735Y-72085735D02*
X159312500Y-72062500D01*
X159312500Y-72062500D02*
X153300000Y-72062500D01*
%TO.N,BAT_LEVEL*%
X167965290Y-93999000D02*
X166716290Y-92750000D01*
X166716290Y-92750000D02*
X163250000Y-92750000D01*
X181134000Y-93999000D02*
X167965290Y-93999000D01*
X183885000Y-96750000D02*
X181134000Y-93999000D01*
%TO.N,/PWM_PD*%
X159200028Y-105549972D02*
X159075028Y-105424972D01*
X163012000Y-106870000D02*
X162881000Y-107001000D01*
X157675028Y-105424972D02*
X157500000Y-105600000D01*
X159200028Y-105549972D02*
X157588000Y-103937943D01*
X159075028Y-105424972D02*
X157675028Y-105424972D01*
X162881000Y-107001000D02*
X160651057Y-107001000D01*
X157588000Y-103937943D02*
X157588000Y-101790000D01*
X160651057Y-107001000D02*
X159200028Y-105549972D01*
X163012000Y-103060000D02*
X163012000Y-106870000D01*
%TO.N,PWM_C*%
X160800000Y-106300000D02*
X160900000Y-106400000D01*
X160800000Y-90500000D02*
X160800000Y-106300000D01*
%TO.N,PYRO_B*%
X156640000Y-108140000D02*
X157588000Y-108140000D01*
X156200000Y-107700000D02*
X156640000Y-108140000D01*
X153000000Y-107700000D02*
X156200000Y-107700000D01*
X152402500Y-106807500D02*
X152402500Y-107102500D01*
X150600000Y-106500000D02*
X150600000Y-106700000D01*
X152402500Y-107102500D02*
X153000000Y-107700000D01*
X150600000Y-106700000D02*
X151600000Y-107700000D01*
X151600000Y-107700000D02*
X153000000Y-107700000D01*
%TO.N,PWM_D*%
X164500000Y-86100000D02*
X164750000Y-85850000D01*
X164750000Y-85850000D02*
X164800000Y-85800000D01*
X161400000Y-103900000D02*
X161400000Y-87400000D01*
X162700000Y-86100000D02*
X164500000Y-86100000D01*
X161400000Y-87400000D02*
X162700000Y-86100000D01*
%TO.N,BOOT0*%
X174060000Y-66660000D02*
X172909000Y-65509000D01*
X172909000Y-65509000D02*
X168691000Y-65509000D01*
X168691000Y-65509000D02*
X155200000Y-79000000D01*
%TO.N,nRST*%
X179140000Y-66660000D02*
X177989000Y-67811000D01*
X152600000Y-83627761D02*
X152600000Y-88800000D01*
X168416761Y-67811000D02*
X152600000Y-83627761D01*
X177989000Y-67811000D02*
X168416761Y-67811000D01*
%TO.N,SWDIO*%
X160104452Y-82195548D02*
X160100000Y-82200000D01*
X160104452Y-82229558D02*
X160084485Y-82249525D01*
X160104452Y-82195548D02*
X160104452Y-82229558D01*
X177240000Y-71100000D02*
X167500000Y-71100000D01*
X167500000Y-71100000D02*
X160104452Y-78495548D01*
X179140000Y-69200000D02*
X177240000Y-71100000D01*
X161400000Y-84600000D02*
X163700000Y-84600000D01*
X160104452Y-78495548D02*
X160104452Y-82195548D01*
D30*
%TO.N,Net-(J7-Pin_2)*%
X166100000Y-112260000D02*
X164400000Y-113960000D01*
X166100000Y-110400000D02*
X166100000Y-112260000D01*
%TO.N,Net-(J8-Pin_2)*%
X150900000Y-111400000D02*
X153500000Y-114000000D01*
X150900000Y-110300000D02*
X150900000Y-111400000D01*
D29*
%TO.N,BCD*%
X172861809Y-97123999D02*
X171893876Y-96156066D01*
X171838943Y-95009000D02*
X171341057Y-95009000D01*
X170989000Y-95361057D02*
X170989000Y-95749000D01*
X169951057Y-95524000D02*
X169753632Y-95721425D01*
X169753632Y-95721425D02*
X165221425Y-95721425D01*
X170673943Y-95749000D02*
X170448943Y-95524000D01*
X165221425Y-95721425D02*
X163250000Y-93750000D01*
X170448943Y-95524000D02*
X169951057Y-95524000D01*
X171341057Y-95009000D02*
X170989000Y-95361057D01*
X186000000Y-97500000D02*
X173445238Y-97500000D01*
X173445238Y-97500000D02*
X173445238Y-97476056D01*
X187500000Y-96000000D02*
X186000000Y-97500000D01*
X172191000Y-95361057D02*
X171838943Y-95009000D01*
X173093181Y-97123999D02*
X172861809Y-97123999D01*
X173445238Y-97476056D02*
X173093181Y-97123999D01*
X171893876Y-96156066D02*
X172191000Y-95858943D01*
X172191000Y-95858943D02*
X172191000Y-95361057D01*
X170989000Y-95749000D02*
X170673943Y-95749000D01*
%TO.N,MMC5983MA_SDA*%
X147333721Y-90500000D02*
X144200000Y-90500000D01*
X147422626Y-90411095D02*
X147333721Y-90500000D01*
D28*
%TO.N,EMMC_DAT7*%
X174900000Y-81600000D02*
X174900000Y-79900000D01*
X173001756Y-83198244D02*
X173306766Y-83198244D01*
X171743464Y-84484298D02*
X171743464Y-84456536D01*
X173306766Y-83198244D02*
X173897489Y-82607521D01*
X171420696Y-84807066D02*
X171743464Y-84484298D01*
X168830332Y-87548900D02*
X168851000Y-87528232D01*
X168851000Y-87349000D02*
X171392934Y-84807066D01*
X171743464Y-84456536D02*
X173001756Y-83198244D01*
X168851000Y-87528232D02*
X168851000Y-87349000D01*
X168830332Y-87830332D02*
X168830332Y-87548900D01*
X171392934Y-84807066D02*
X171420696Y-84807066D01*
X174900000Y-79900000D02*
X173900000Y-78900000D01*
X173897489Y-82607521D02*
X173897489Y-82602511D01*
X173897489Y-82602511D02*
X174900000Y-81600000D01*
%TO.N,EMMC_DAT6*%
X174807387Y-82189001D02*
X175088817Y-82189001D01*
X172094464Y-84629686D02*
X172094464Y-84601924D01*
X174248489Y-82752909D02*
X174248489Y-82747899D01*
X173452154Y-83549244D02*
X174248489Y-82752909D01*
X173500000Y-79400000D02*
X168900000Y-79400000D01*
X174100000Y-80000000D02*
X173500000Y-79400000D01*
X173147144Y-83549244D02*
X173452154Y-83549244D01*
X171566084Y-85158066D02*
X172094464Y-84629686D01*
X169381332Y-87315056D02*
X171538322Y-85158066D01*
X168901495Y-88660000D02*
X169381332Y-88180163D01*
X169381332Y-88180163D02*
X169381332Y-87315056D01*
X174248489Y-82747899D02*
X174807387Y-82189001D01*
X171538322Y-85158066D02*
X171566084Y-85158066D01*
X172094464Y-84601924D02*
X173147144Y-83549244D01*
%TO.N,EMMC_DAT5*%
X168950000Y-82500000D02*
X171991578Y-82500000D01*
X159856253Y-82800525D02*
X160312717Y-82800525D01*
X160312717Y-82800525D02*
X160414242Y-82699000D01*
X171991578Y-82500000D02*
X171995335Y-82496244D01*
X163928230Y-82900000D02*
X168550000Y-82900000D01*
X173800000Y-81100000D02*
X173800000Y-81000000D01*
X154600000Y-82800000D02*
X159825220Y-82800000D01*
X159825220Y-82800000D02*
X159840474Y-82784746D01*
X172403756Y-82496244D02*
X173800000Y-81100000D01*
X154529843Y-82870157D02*
X154600000Y-82800000D01*
X160414242Y-82699000D02*
X163727230Y-82699000D01*
X159840474Y-82784746D02*
X159856253Y-82800525D01*
X168900000Y-82550000D02*
X168950000Y-82500000D01*
X168550000Y-82900000D02*
X168900000Y-82550000D01*
X171995335Y-82496244D02*
X172403756Y-82496244D01*
X163727230Y-82699000D02*
X163928230Y-82900000D01*
D29*
%TO.N,PWM_Buzzer*%
X168960000Y-63660000D02*
X188055000Y-63660000D01*
X151940000Y-80680000D02*
X168960000Y-63660000D01*
X151940000Y-82280000D02*
X151940000Y-80680000D01*
D28*
%TO.N,EMMC_DAT4*%
X171599617Y-83700383D02*
X171700000Y-83600000D01*
X171051789Y-83609019D02*
X171508253Y-83609019D01*
X171508253Y-83609019D02*
X171599617Y-83700383D01*
X170679232Y-83600000D02*
X171042770Y-83600000D01*
X156237505Y-83800000D02*
X170020768Y-83800000D01*
X170020768Y-83800000D02*
X170221768Y-83599000D01*
X170678232Y-83599000D02*
X170679232Y-83600000D01*
X171042770Y-83600000D02*
X171051789Y-83609019D01*
X170221768Y-83599000D02*
X170678232Y-83599000D01*
X156168753Y-83731247D02*
X156237505Y-83800000D01*
%TO.N,EMMC_DAT3*%
X162600000Y-83250000D02*
X162799000Y-83449000D01*
X162799000Y-83449000D02*
X169001000Y-83449000D01*
X172952756Y-82847244D02*
X173396489Y-82403511D01*
X172140723Y-82847244D02*
X172952756Y-82847244D01*
X169001000Y-83449000D02*
X169400000Y-83050000D01*
X172136966Y-82851000D02*
X172140723Y-82847244D01*
X173396489Y-82403511D02*
X173396489Y-82400000D01*
X169400000Y-83050000D02*
X169599000Y-82851000D01*
X169599000Y-82851000D02*
X172136966Y-82851000D01*
%TO.N,EMMC_DAT2*%
X169700000Y-82000000D02*
X164799349Y-82000000D01*
X171700000Y-80000000D02*
X170650000Y-81050000D01*
X164704554Y-82094795D02*
X164709770Y-82094795D01*
X164586219Y-82213130D02*
X164704554Y-82094795D01*
X164799349Y-82000000D02*
X164586219Y-82213130D01*
X170650000Y-81050000D02*
X169700000Y-82000000D01*
X164006456Y-82213130D02*
X164586219Y-82213130D01*
X172100000Y-80000000D02*
X171700000Y-80000000D01*
%TO.N,EMMC_DAT1*%
X167520806Y-86989128D02*
X167825070Y-86684864D01*
X173780000Y-87580000D02*
X173780000Y-87900000D01*
X167520806Y-87150000D02*
X167520806Y-86989128D01*
X170350000Y-84150000D02*
X170450000Y-84150000D01*
X171890312Y-85690312D02*
X173780000Y-87580000D01*
X167825070Y-86684864D02*
X167825070Y-86674930D01*
X167825070Y-86674930D02*
X170350000Y-84150000D01*
%TO.N,EMMC_DAT0*%
X172366336Y-85166336D02*
X173790000Y-86590000D01*
X172366336Y-85066336D02*
X172366336Y-85166336D01*
X171183974Y-84366026D02*
X171183974Y-84256066D01*
X168082185Y-87467815D02*
X171183974Y-84366026D01*
X173790000Y-86590000D02*
X173790000Y-86700000D01*
X168082185Y-87650000D02*
X168082185Y-87467815D01*
X171183974Y-84256066D02*
X171280021Y-84160019D01*
D31*
%TO.N,ANT_SW*%
X153562500Y-66562500D02*
X134700000Y-66562500D01*
X154000000Y-67000000D02*
X153562500Y-66562500D01*
D29*
%TO.N,ADXL375_SDO*%
X168448905Y-95120425D02*
X167028480Y-93700000D01*
X167028480Y-93700000D02*
X164700000Y-93700000D01*
X170275000Y-96200000D02*
X170200000Y-96125000D01*
X172844238Y-97724999D02*
X172844237Y-97725000D01*
X173570000Y-101280000D02*
X173580000Y-101290000D01*
X168550000Y-95120425D02*
X168448905Y-95120425D01*
X172825000Y-97725000D02*
X171300000Y-96200000D01*
X172844237Y-97725000D02*
X172825000Y-97725000D01*
X171300000Y-96200000D02*
X170275000Y-96200000D01*
X173570000Y-99520000D02*
X173570000Y-101280000D01*
%TO.N,ADXL375_SDI*%
X171200000Y-97000000D02*
X170180000Y-97000000D01*
X172725003Y-98525003D02*
X171200000Y-97000000D01*
%TO.N,BMI088_GYRO_INT*%
X171800018Y-101260000D02*
X171740018Y-101200000D01*
X165700000Y-101200000D02*
X162300000Y-97800000D01*
X162300000Y-97800000D02*
X162300000Y-95100000D01*
X171740018Y-101200000D02*
X165700000Y-101200000D01*
%TO.N,USB_DN*%
X187975001Y-89924999D02*
X181539501Y-89924999D01*
X181539501Y-89924999D02*
X180463500Y-91001000D01*
X177204481Y-91000000D02*
X175608481Y-91000000D01*
X175608481Y-91000000D02*
X175607481Y-90999000D01*
X178568100Y-91001000D02*
X178566099Y-90999000D01*
X164999000Y-90999000D02*
X164000000Y-90000000D01*
X177205481Y-90999000D02*
X177204481Y-91000000D01*
X188300000Y-89600000D02*
X187975001Y-89924999D01*
X175607481Y-90999000D02*
X164999000Y-90999000D01*
X178566099Y-90999000D02*
X177205481Y-90999000D01*
X180463500Y-91001000D02*
X178568100Y-91001000D01*
X164000000Y-90000000D02*
X164000000Y-88500000D01*
%TO.N,D-*%
X192500000Y-89880000D02*
X193150000Y-89230000D01*
X193150000Y-89230000D02*
X193337500Y-89230000D01*
X193052967Y-91980000D02*
X192900000Y-91980000D01*
X192900000Y-91980000D02*
X192500000Y-91580000D01*
X192500000Y-91580000D02*
X192500000Y-89880000D01*
X193094445Y-91938522D02*
X193052967Y-91980000D01*
%TO.N,USB_DP*%
X181747021Y-90425999D02*
X188025999Y-90425999D01*
X180671020Y-91502000D02*
X181747021Y-90425999D01*
X163200000Y-90100000D02*
X164600000Y-91500000D01*
X177413002Y-91500000D02*
X178358580Y-91500000D01*
X178358580Y-91500000D02*
X178360579Y-91502000D01*
X177412001Y-91501000D02*
X177413002Y-91500000D01*
X178360579Y-91502000D02*
X180671020Y-91502000D01*
X175400960Y-91501000D02*
X177412001Y-91501000D01*
X188025999Y-90425999D02*
X188300000Y-90700000D01*
X175399961Y-91500000D02*
X175400960Y-91501000D01*
X164600000Y-91500000D02*
X175399961Y-91500000D01*
X163200000Y-88500000D02*
X163200000Y-90100000D01*
%TO.N,MS5607_MOSI*%
X154878830Y-101400000D02*
X156050000Y-100228830D01*
X156050000Y-100228830D02*
X156050000Y-99500000D01*
X154300000Y-101400000D02*
X154878830Y-101400000D01*
D28*
%TO.N,EMMC_RSTN*%
X176900000Y-81400000D02*
X175900000Y-81400000D01*
X177300000Y-81000000D02*
X176900000Y-81400000D01*
D29*
%TO.N,GNSS_Reset*%
X149600000Y-96000000D02*
X150300000Y-95300000D01*
X112999998Y-93499998D02*
X115500000Y-96000000D01*
X115500000Y-96000000D02*
X149600000Y-96000000D01*
D28*
%TO.N,EMMC_CLK*%
X163351000Y-78349000D02*
X162300000Y-79400000D01*
X177900000Y-78349000D02*
X163351000Y-78349000D01*
D29*
%TO.N,GNSS_INT*%
X114100000Y-96500000D02*
X151900000Y-96500000D01*
X111100000Y-93500000D02*
X114100000Y-96500000D01*
D28*
%TO.N,EMMC_CMD*%
X178400000Y-77800000D02*
X162300000Y-77800000D01*
X162300000Y-77800000D02*
X160800000Y-79300000D01*
%TO.N,Net-(U11-VDDI)*%
X174001523Y-85530977D02*
X174001523Y-84701523D01*
X174032500Y-85561954D02*
X174001523Y-85530977D01*
X174001523Y-84701523D02*
X173351748Y-84051748D01*
X174032500Y-85700000D02*
X174032500Y-85561954D01*
%TD*%
%TA.AperFunction,Conductor*%
%TO.N,BOOT0*%
G36*
X172868557Y-65364265D02*
G01*
X173960872Y-65736131D01*
X174216133Y-65823033D01*
X174222860Y-65828943D01*
X174223840Y-65836378D01*
X174062518Y-66652318D01*
X174057551Y-66659770D01*
X174053320Y-66661525D01*
X173236575Y-66823792D01*
X173227793Y-66822043D01*
X173223151Y-66815882D01*
X172853648Y-65660738D01*
X172853092Y-65657173D01*
X172853092Y-65375342D01*
X172856519Y-65367069D01*
X172864792Y-65363642D01*
X172868557Y-65364265D01*
G37*
%TD.AperFunction*%
%TD*%
%TA.AperFunction,Conductor*%
%TO.N,nRST*%
G36*
X178300434Y-66234190D02*
G01*
X179136669Y-66657806D01*
X179142501Y-66664601D01*
X179142505Y-66664614D01*
X179414381Y-67497989D01*
X179413689Y-67506917D01*
X179406887Y-67512741D01*
X179406024Y-67512986D01*
X177579144Y-67957480D01*
X177570295Y-67956106D01*
X177565010Y-67948878D01*
X177564678Y-67946112D01*
X177564678Y-67663794D01*
X177565940Y-67658508D01*
X178284713Y-66239342D01*
X178291509Y-66233510D01*
X178300434Y-66234190D01*
G37*
%TD.AperFunction*%
%TD*%
%TA.AperFunction,Conductor*%
%TO.N,SWDIO*%
G36*
X179071201Y-69185538D02*
G01*
X179133021Y-69197772D01*
X179140472Y-69202739D01*
X179142227Y-69206978D01*
X179303891Y-70023886D01*
X179302136Y-70032667D01*
X179296476Y-70037129D01*
X178062566Y-70493994D01*
X178053618Y-70493653D01*
X178050231Y-70491295D01*
X177848704Y-70289768D01*
X177845277Y-70281495D01*
X177846004Y-70277438D01*
X178302871Y-69043521D01*
X178308956Y-69036954D01*
X178316111Y-69036108D01*
X179071201Y-69185538D01*
G37*
%TD.AperFunction*%
%TD*%
%TA.AperFunction,Conductor*%
%TO.N,D-*%
G36*
X192700150Y-91563088D02*
G01*
X193141268Y-91642187D01*
X193148806Y-91647020D01*
X193150719Y-91655768D01*
X193150684Y-91655954D01*
X193095606Y-91936908D01*
X193093832Y-91941189D01*
X192935413Y-92176610D01*
X192927951Y-92181561D01*
X192919174Y-92179785D01*
X192917746Y-92178653D01*
X192490910Y-91782404D01*
X192487178Y-91774263D01*
X192490295Y-91765869D01*
X192490569Y-91765584D01*
X192689822Y-91566331D01*
X192698094Y-91562905D01*
X192700150Y-91563088D01*
G37*
%TD.AperFunction*%
%TD*%
M02*
