%TF.GenerationSoftware,KiCad,Pcbnew,8.0.4*%
%TF.CreationDate,2025-03-29T22:20:15+07:00*%
%TF.ProjectId,FlightCom,466c6967-6874-4436-9f6d-2e6b69636164,rev?*%
%TF.SameCoordinates,Original*%
%TF.FileFunction,Paste,Top*%
%TF.FilePolarity,Positive*%
%FSLAX46Y46*%
G04 Gerber Fmt 4.6, Leading zero omitted, Abs format (unit mm)*
G04 Created by KiCad (PCBNEW 8.0.4) date 2025-03-29 22:20:15*
%MOMM*%
%LPD*%
G01*
G04 APERTURE LIST*
G04 Aperture macros list*
%AMRoundRect*
0 Rectangle with rounded corners*
0 $1 Rounding radius*
0 $2 $3 $4 $5 $6 $7 $8 $9 X,Y pos of 4 corners*
0 Add a 4 corners polygon primitive as box body*
4,1,4,$2,$3,$4,$5,$6,$7,$8,$9,$2,$3,0*
0 Add four circle primitives for the rounded corners*
1,1,$1+$1,$2,$3*
1,1,$1+$1,$4,$5*
1,1,$1+$1,$6,$7*
1,1,$1+$1,$8,$9*
0 Add four rect primitives between the rounded corners*
20,1,$1+$1,$2,$3,$4,$5,0*
20,1,$1+$1,$4,$5,$6,$7,0*
20,1,$1+$1,$6,$7,$8,$9,0*
20,1,$1+$1,$8,$9,$2,$3,0*%
G04 Aperture macros list end*
%ADD10C,0.010000*%
%ADD11RoundRect,0.135000X0.185000X-0.135000X0.185000X0.135000X-0.185000X0.135000X-0.185000X-0.135000X0*%
%ADD12RoundRect,0.160000X0.160000X-0.197500X0.160000X0.197500X-0.160000X0.197500X-0.160000X-0.197500X0*%
%ADD13RoundRect,0.140000X-0.140000X-0.170000X0.140000X-0.170000X0.140000X0.170000X-0.140000X0.170000X0*%
%ADD14RoundRect,0.155000X-0.155000X0.212500X-0.155000X-0.212500X0.155000X-0.212500X0.155000X0.212500X0*%
%ADD15RoundRect,0.140000X0.219203X0.021213X0.021213X0.219203X-0.219203X-0.021213X-0.021213X-0.219203X0*%
%ADD16RoundRect,0.140000X0.140000X0.170000X-0.140000X0.170000X-0.140000X-0.170000X0.140000X-0.170000X0*%
%ADD17RoundRect,0.135000X0.135000X0.185000X-0.135000X0.185000X-0.135000X-0.185000X0.135000X-0.185000X0*%
%ADD18RoundRect,0.075000X-0.725000X-0.075000X0.725000X-0.075000X0.725000X0.075000X-0.725000X0.075000X0*%
%ADD19RoundRect,0.075000X-0.075000X-0.725000X0.075000X-0.725000X0.075000X0.725000X-0.075000X0.725000X0*%
%ADD20RoundRect,0.155000X0.212500X0.155000X-0.212500X0.155000X-0.212500X-0.155000X0.212500X-0.155000X0*%
%ADD21R,0.990000X0.410000*%
%ADD22R,0.760000X0.410000*%
%ADD23R,1.725000X0.990000*%
%ADD24R,0.950000X0.550000*%
%ADD25RoundRect,0.155000X-0.212500X-0.155000X0.212500X-0.155000X0.212500X0.155000X-0.212500X0.155000X0*%
%ADD26RoundRect,0.135000X-0.135000X-0.185000X0.135000X-0.185000X0.135000X0.185000X-0.135000X0.185000X0*%
%ADD27R,2.300000X3.150000*%
%ADD28RoundRect,0.140000X-0.170000X0.140000X-0.170000X-0.140000X0.170000X-0.140000X0.170000X0.140000X0*%
%ADD29RoundRect,0.147500X0.172500X-0.147500X0.172500X0.147500X-0.172500X0.147500X-0.172500X-0.147500X0*%
%ADD30R,0.650000X1.525000*%
%ADD31R,0.980000X3.400000*%
%ADD32RoundRect,0.160000X-0.160000X0.197500X-0.160000X-0.197500X0.160000X-0.197500X0.160000X0.197500X0*%
%ADD33RoundRect,0.160000X-0.197500X-0.160000X0.197500X-0.160000X0.197500X0.160000X-0.197500X0.160000X0*%
%ADD34RoundRect,0.150000X0.150000X-0.512500X0.150000X0.512500X-0.150000X0.512500X-0.150000X-0.512500X0*%
%ADD35R,0.800000X0.250000*%
%ADD36R,0.250000X0.800000*%
%ADD37RoundRect,0.147500X0.147500X0.172500X-0.147500X0.172500X-0.147500X-0.172500X0.147500X-0.172500X0*%
%ADD38RoundRect,0.160000X0.197500X0.160000X-0.197500X0.160000X-0.197500X-0.160000X0.197500X-0.160000X0*%
%ADD39RoundRect,0.135000X-0.185000X0.135000X-0.185000X-0.135000X0.185000X-0.135000X0.185000X0.135000X0*%
%ADD40RoundRect,0.140000X0.170000X-0.140000X0.170000X0.140000X-0.170000X0.140000X-0.170000X-0.140000X0*%
%ADD41RoundRect,0.182500X-0.182500X0.182500X-0.182500X-0.182500X0.182500X-0.182500X0.182500X0.182500X0*%
%ADD42RoundRect,0.062500X-0.062500X0.350000X-0.062500X-0.350000X0.062500X-0.350000X0.062500X0.350000X0*%
%ADD43RoundRect,0.062500X-0.350000X0.062500X-0.350000X-0.062500X0.350000X-0.062500X0.350000X0.062500X0*%
%ADD44R,0.900000X0.800000*%
%ADD45R,0.410000X0.990000*%
%ADD46R,0.410000X0.760000*%
%ADD47R,0.990000X1.725000*%
%ADD48R,0.780000X0.350000*%
%ADD49RoundRect,0.140000X-0.219203X-0.021213X-0.021213X-0.219203X0.219203X0.021213X0.021213X0.219203X0*%
%ADD50RoundRect,0.155000X0.155000X-0.212500X0.155000X0.212500X-0.155000X0.212500X-0.155000X-0.212500X0*%
%ADD51RoundRect,0.147500X-0.147500X-0.172500X0.147500X-0.172500X0.147500X0.172500X-0.147500X0.172500X0*%
%ADD52R,3.800000X1.000000*%
%ADD53RoundRect,0.172500X0.172500X-0.262500X0.172500X0.262500X-0.172500X0.262500X-0.172500X-0.262500X0*%
%ADD54RoundRect,0.093750X0.106250X-0.093750X0.106250X0.093750X-0.106250X0.093750X-0.106250X-0.093750X0*%
%ADD55RoundRect,0.250000X0.300000X-0.300000X0.300000X0.300000X-0.300000X0.300000X-0.300000X-0.300000X0*%
%ADD56R,0.450000X0.250000*%
%ADD57R,0.250000X0.450000*%
%ADD58RoundRect,0.147500X-0.172500X0.147500X-0.172500X-0.147500X0.172500X-0.147500X0.172500X0.147500X0*%
%ADD59R,1.120000X1.240000*%
%ADD60O,0.450000X1.770000*%
%ADD61R,1.550000X0.600000*%
%ADD62C,0.350000*%
%ADD63R,1.803400X1.498600*%
%ADD64R,1.498600X1.803400*%
%ADD65R,1.220000X0.910000*%
%ADD66RoundRect,0.237500X0.237500X-0.287500X0.237500X0.287500X-0.237500X0.287500X-0.237500X-0.287500X0*%
%ADD67R,1.780000X5.080000*%
%ADD68RoundRect,0.250000X-0.275000X-0.275000X0.275000X-0.275000X0.275000X0.275000X-0.275000X0.275000X0*%
%ADD69RoundRect,0.062500X-0.350000X-0.062500X0.350000X-0.062500X0.350000X0.062500X-0.350000X0.062500X0*%
%ADD70RoundRect,0.062500X-0.062500X-0.350000X0.062500X-0.350000X0.062500X0.350000X-0.062500X0.350000X0*%
%ADD71R,0.600000X1.100000*%
%ADD72R,0.300000X1.100000*%
%ADD73O,0.360000X1.660000*%
%ADD74R,0.800000X0.860000*%
%ADD75R,0.800000X0.900000*%
G04 APERTURE END LIST*
D10*
%TO.C,J9*%
X111550000Y-74900000D02*
X115530000Y-74900000D01*
X115530000Y-75900000D01*
X110550000Y-75900000D01*
X110550000Y-70350000D01*
X111550000Y-70350000D01*
X111550000Y-74900000D01*
G36*
X111550000Y-74900000D02*
G01*
X115530000Y-74900000D01*
X115530000Y-75900000D01*
X110550000Y-75900000D01*
X110550000Y-70350000D01*
X111550000Y-70350000D01*
X111550000Y-74900000D01*
G37*
X132450000Y-59650000D02*
X131450000Y-59650000D01*
X131450000Y-55100000D01*
X127470000Y-55100000D01*
X127470000Y-54100000D01*
X132450000Y-54100000D01*
X132450000Y-59650000D01*
G36*
X132450000Y-59650000D02*
G01*
X131450000Y-59650000D01*
X131450000Y-55100000D01*
X127470000Y-55100000D01*
X127470000Y-54100000D01*
X132450000Y-54100000D01*
X132450000Y-59650000D01*
G37*
%TD*%
D11*
%TO.C,R23*%
X162000000Y-61200000D03*
X162000000Y-62220000D03*
%TD*%
D12*
%TO.C,R37*%
X160300000Y-93797500D03*
X160300000Y-92602500D03*
%TD*%
D13*
%TO.C,C32*%
X135620000Y-108490000D03*
X136580000Y-108490000D03*
%TD*%
D14*
%TO.C,C26*%
X147025000Y-90982500D03*
X147025000Y-92117500D03*
%TD*%
D15*
%TO.C,C54*%
X126839411Y-63139411D03*
X126160589Y-62460589D03*
%TD*%
D16*
%TO.C,C57*%
X118110000Y-64200000D03*
X117150000Y-64200000D03*
%TD*%
D13*
%TO.C,C60*%
X99075000Y-83575000D03*
X100035000Y-83575000D03*
%TD*%
D17*
%TO.C,R20*%
X115685000Y-90725000D03*
X114665000Y-90725000D03*
%TD*%
D18*
%TO.C,U5*%
X124400000Y-81550000D03*
X124400000Y-82050000D03*
X124400000Y-82550000D03*
X124400000Y-83050000D03*
X124400000Y-83550000D03*
X124400000Y-84050000D03*
X124400000Y-84550000D03*
X124400000Y-85050000D03*
X124400000Y-85550000D03*
X124400000Y-86050000D03*
X124400000Y-86550000D03*
X124400000Y-87050000D03*
X124400000Y-87550000D03*
X124400000Y-88050000D03*
X124400000Y-88550000D03*
X124400000Y-89050000D03*
X124400000Y-89550000D03*
X124400000Y-90050000D03*
X124400000Y-90550000D03*
X124400000Y-91050000D03*
X124400000Y-91550000D03*
X124400000Y-92050000D03*
X124400000Y-92550000D03*
X124400000Y-93050000D03*
X124400000Y-93550000D03*
D19*
X126075000Y-95225000D03*
X126575000Y-95225000D03*
X127075000Y-95225000D03*
X127575000Y-95225000D03*
X128075000Y-95225000D03*
X128575000Y-95225000D03*
X129075000Y-95225000D03*
X129575000Y-95225000D03*
X130075000Y-95225000D03*
X130575000Y-95225000D03*
X131075000Y-95225000D03*
X131575000Y-95225000D03*
X132075000Y-95225000D03*
X132575000Y-95225000D03*
X133075000Y-95225000D03*
X133575000Y-95225000D03*
X134075000Y-95225000D03*
X134575000Y-95225000D03*
X135075000Y-95225000D03*
X135575000Y-95225000D03*
X136075000Y-95225000D03*
X136575000Y-95225000D03*
X137075000Y-95225000D03*
X137575000Y-95225000D03*
X138075000Y-95225000D03*
D18*
X139750000Y-93550000D03*
X139750000Y-93050000D03*
X139750000Y-92550000D03*
X139750000Y-92050000D03*
X139750000Y-91550000D03*
X139750000Y-91050000D03*
X139750000Y-90550000D03*
X139750000Y-90050000D03*
X139750000Y-89550000D03*
X139750000Y-89050000D03*
X139750000Y-88550000D03*
X139750000Y-88050000D03*
X139750000Y-87550000D03*
X139750000Y-87050000D03*
X139750000Y-86550000D03*
X139750000Y-86050000D03*
X139750000Y-85550000D03*
X139750000Y-85050000D03*
X139750000Y-84550000D03*
X139750000Y-84050000D03*
X139750000Y-83550000D03*
X139750000Y-83050000D03*
X139750000Y-82550000D03*
X139750000Y-82050000D03*
X139750000Y-81550000D03*
D19*
X138075000Y-79875000D03*
X137575000Y-79875000D03*
X137075000Y-79875000D03*
X136575000Y-79875000D03*
X136075000Y-79875000D03*
X135575000Y-79875000D03*
X135075000Y-79875000D03*
X134575000Y-79875000D03*
X134075000Y-79875000D03*
X133575000Y-79875000D03*
X133075000Y-79875000D03*
X132575000Y-79875000D03*
X132075000Y-79875000D03*
X131575000Y-79875000D03*
X131075000Y-79875000D03*
X130575000Y-79875000D03*
X130075000Y-79875000D03*
X129575000Y-79875000D03*
X129075000Y-79875000D03*
X128575000Y-79875000D03*
X128075000Y-79875000D03*
X127575000Y-79875000D03*
X127075000Y-79875000D03*
X126575000Y-79875000D03*
X126075000Y-79875000D03*
%TD*%
D20*
%TO.C,C17*%
X125667500Y-77200000D03*
X124532500Y-77200000D03*
%TD*%
D21*
%TO.C,Q4*%
X164400000Y-103920000D03*
X164400000Y-104580000D03*
X164400000Y-105240000D03*
X164400000Y-105900000D03*
D22*
X167385000Y-105900000D03*
X167385000Y-105240000D03*
X167385000Y-104580000D03*
X167385000Y-103920000D03*
D23*
X166392500Y-104302500D03*
X166392500Y-105517500D03*
%TD*%
D20*
%TO.C,C12*%
X135917500Y-99050000D03*
X134782500Y-99050000D03*
%TD*%
D24*
%TO.C,U9*%
X119851250Y-102948750D03*
X119851250Y-104198750D03*
X119851250Y-105448750D03*
X119851250Y-106698750D03*
X122001250Y-106698750D03*
X122001250Y-105448750D03*
X122001250Y-104198750D03*
X122001250Y-102948750D03*
%TD*%
D13*
%TO.C,C46*%
X125220000Y-74250000D03*
X126180000Y-74250000D03*
%TD*%
D25*
%TO.C,C25*%
X160700000Y-84750000D03*
X161835000Y-84750000D03*
%TD*%
D26*
%TO.C,R3*%
X145050000Y-84850000D03*
X146070000Y-84850000D03*
%TD*%
D14*
%TO.C,C14*%
X116200000Y-98832500D03*
X116200000Y-99967500D03*
%TD*%
D17*
%TO.C,R33*%
X166710000Y-93250000D03*
X165690000Y-93250000D03*
%TD*%
D27*
%TO.C,D1*%
X159650000Y-88700000D03*
X166550000Y-88700000D03*
%TD*%
D25*
%TO.C,C24*%
X158482500Y-84750000D03*
X159617500Y-84750000D03*
%TD*%
D28*
%TO.C,C40*%
X132650000Y-65620000D03*
X132650000Y-66580000D03*
%TD*%
D29*
%TO.C,L4*%
X125950000Y-64820000D03*
X125950000Y-63850000D03*
%TD*%
D30*
%TO.C,IC1*%
X159640000Y-100762000D03*
X160910000Y-100762000D03*
X162180000Y-100762000D03*
X163450000Y-100762000D03*
X164720000Y-100762000D03*
X165990000Y-100762000D03*
X167260000Y-100762000D03*
X167260000Y-95338000D03*
X165990000Y-95338000D03*
X164720000Y-95338000D03*
X163450000Y-95338000D03*
X162180000Y-95338000D03*
X160910000Y-95338000D03*
X159640000Y-95338000D03*
%TD*%
D31*
%TO.C,L1*%
X156695000Y-87050000D03*
X154325000Y-87050000D03*
%TD*%
D32*
%TO.C,R5*%
X149850000Y-104152500D03*
X149850000Y-105347500D03*
%TD*%
D17*
%TO.C,R45*%
X144210000Y-85950000D03*
X143190000Y-85950000D03*
%TD*%
D33*
%TO.C,R8*%
X147552500Y-103500000D03*
X148747500Y-103500000D03*
%TD*%
D34*
%TO.C,U4*%
X151650000Y-103450000D03*
X152600000Y-103450000D03*
X153550000Y-103450000D03*
X153550000Y-101175000D03*
X152600000Y-101175000D03*
X151650000Y-101175000D03*
%TD*%
D35*
%TO.C,U6*%
X126575000Y-106450000D03*
X126575000Y-105950000D03*
X126575000Y-105450000D03*
X126575000Y-104950000D03*
X126575000Y-104450000D03*
X126575000Y-103950000D03*
X126575000Y-103450000D03*
D36*
X127775000Y-103040000D03*
D35*
X128975000Y-103450000D03*
X128975000Y-103950000D03*
X128975000Y-104450000D03*
X128975000Y-104950000D03*
X128975000Y-105450000D03*
X128975000Y-105950000D03*
X128975000Y-106450000D03*
D36*
X127775000Y-106860000D03*
%TD*%
D28*
%TO.C,C49*%
X124800000Y-64900000D03*
X124800000Y-65860000D03*
%TD*%
D37*
%TO.C,L7*%
X120970000Y-64200000D03*
X120000000Y-64200000D03*
%TD*%
D38*
%TO.C,R4*%
X155892500Y-90682500D03*
X154697500Y-90682500D03*
%TD*%
D39*
%TO.C,R16*%
X169050000Y-94940000D03*
X169050000Y-95960000D03*
%TD*%
D32*
%TO.C,R36*%
X158300000Y-94502500D03*
X158300000Y-95697500D03*
%TD*%
D16*
%TO.C,C3*%
X119950000Y-83750000D03*
X118990000Y-83750000D03*
%TD*%
D14*
%TO.C,C18*%
X156900000Y-92882500D03*
X156900000Y-94017500D03*
%TD*%
D13*
%TO.C,C36*%
X102940000Y-81850000D03*
X103900000Y-81850000D03*
%TD*%
D40*
%TO.C,C39*%
X111850000Y-66250000D03*
X111850000Y-65290000D03*
%TD*%
D41*
%TO.C,U1*%
X154015000Y-93250000D03*
X153175000Y-93250000D03*
X154015000Y-94090000D03*
X153175000Y-94090000D03*
D42*
X154345000Y-92207500D03*
X153845000Y-92207500D03*
X153345000Y-92207500D03*
X152845000Y-92207500D03*
D43*
X152132500Y-92920000D03*
X152132500Y-93420000D03*
X152132500Y-93920000D03*
X152132500Y-94420000D03*
D42*
X152845000Y-95132500D03*
X153345000Y-95132500D03*
X153845000Y-95132500D03*
X154345000Y-95132500D03*
D43*
X155057500Y-94420000D03*
X155057500Y-93920000D03*
X155057500Y-93420000D03*
X155057500Y-92920000D03*
%TD*%
D33*
%TO.C,R12*%
X115055000Y-81900000D03*
X116250000Y-81900000D03*
%TD*%
D20*
%TO.C,C23*%
X122700000Y-87050000D03*
X121565000Y-87050000D03*
%TD*%
D33*
%TO.C,R38*%
X161505000Y-92700000D03*
X162700000Y-92700000D03*
%TD*%
D14*
%TO.C,C37*%
X111550000Y-79332500D03*
X111550000Y-80467500D03*
%TD*%
D44*
%TO.C,Y1*%
X120212500Y-71100000D03*
X122062500Y-71100000D03*
X122062500Y-69650000D03*
X120212500Y-69650000D03*
%TD*%
D45*
%TO.C,Q1*%
X164970000Y-78135000D03*
X165630000Y-78135000D03*
X166290000Y-78135000D03*
X166950000Y-78135000D03*
D46*
X166950000Y-75150000D03*
X166290000Y-75150000D03*
X165630000Y-75150000D03*
X164970000Y-75150000D03*
D47*
X165352500Y-76142500D03*
X166567500Y-76142500D03*
%TD*%
D48*
%TO.C,U2*%
X113300000Y-64150000D03*
X113300000Y-63500000D03*
X113300000Y-62850000D03*
X111620000Y-62850000D03*
X111620000Y-63500000D03*
X111620000Y-64150000D03*
%TD*%
D26*
%TO.C,R34*%
X145990000Y-86700000D03*
X147010000Y-86700000D03*
%TD*%
D49*
%TO.C,C51*%
X127321178Y-62221178D03*
X128000000Y-62900000D03*
%TD*%
D50*
%TO.C,C8*%
X168250000Y-83135000D03*
X168250000Y-82000000D03*
%TD*%
D11*
%TO.C,R10*%
X146170000Y-105760000D03*
X146170000Y-104740000D03*
%TD*%
D51*
%TO.C,L3*%
X125180000Y-73300000D03*
X126150000Y-73300000D03*
%TD*%
D52*
%TO.C,J9*%
X122050000Y-75400000D03*
X121850000Y-54600000D03*
%TD*%
D26*
%TO.C,R41*%
X139880000Y-78350000D03*
X140900000Y-78350000D03*
%TD*%
D13*
%TO.C,C43*%
X109240000Y-63450000D03*
X110200000Y-63450000D03*
%TD*%
D25*
%TO.C,C28*%
X135715000Y-98000000D03*
X136850000Y-98000000D03*
%TD*%
D32*
%TO.C,R2*%
X166100000Y-81955000D03*
X166100000Y-83150000D03*
%TD*%
D50*
%TO.C,C9*%
X141650000Y-81950000D03*
X141650000Y-80815000D03*
%TD*%
D53*
%TO.C,U3*%
X149225000Y-91250000D03*
X150025000Y-91250000D03*
D54*
X148975000Y-92137500D03*
X149625000Y-92137500D03*
X150275000Y-92137500D03*
X150275000Y-90362500D03*
X149625000Y-90362500D03*
X148975000Y-90362500D03*
%TD*%
D28*
%TO.C,C52*%
X121900000Y-64220000D03*
X121900000Y-65180000D03*
%TD*%
D55*
%TO.C,D8*%
X95200000Y-93550000D03*
X95200000Y-90750000D03*
%TD*%
D56*
%TO.C,U10*%
X115500000Y-80400000D03*
X115500000Y-79900000D03*
X115500000Y-79400000D03*
X115500000Y-78900000D03*
D57*
X114990000Y-78390000D03*
X114490000Y-78390000D03*
X113990000Y-78390000D03*
X113490000Y-78390000D03*
D56*
X112980000Y-78900000D03*
X112980000Y-79400000D03*
X112980000Y-79900000D03*
X112980000Y-80400000D03*
D57*
X113490000Y-80910000D03*
X113990000Y-80910000D03*
X114490000Y-80910000D03*
X114990000Y-80910000D03*
%TD*%
D13*
%TO.C,C38*%
X120462500Y-72600000D03*
X121422500Y-72600000D03*
%TD*%
D17*
%TO.C,R15*%
X166750000Y-102400000D03*
X165730000Y-102400000D03*
%TD*%
D39*
%TO.C,R14*%
X114050000Y-60800000D03*
X114050000Y-61820000D03*
%TD*%
D58*
%TO.C,D6*%
X97900000Y-101982500D03*
X97900000Y-102952500D03*
%TD*%
D59*
%TO.C,D3*%
X151225000Y-88550000D03*
X151225000Y-85550000D03*
%TD*%
D14*
%TO.C,C11*%
X117600000Y-98850000D03*
X117600000Y-99985000D03*
%TD*%
D13*
%TO.C,C30*%
X133370000Y-106800000D03*
X134330000Y-106800000D03*
%TD*%
D40*
%TO.C,C58*%
X114300000Y-65130000D03*
X114300000Y-64170000D03*
%TD*%
D37*
%TO.C,L6*%
X128000000Y-64550000D03*
X127030000Y-64550000D03*
%TD*%
D17*
%TO.C,R21*%
X115725000Y-92625000D03*
X114705000Y-92625000D03*
%TD*%
D60*
%TO.C,U7*%
X133450000Y-105400000D03*
X134250000Y-105400000D03*
X135050000Y-105400000D03*
X135850000Y-105400000D03*
X136650000Y-105400000D03*
X137450000Y-105400000D03*
D61*
X137750000Y-103990000D03*
D60*
X137450000Y-102580000D03*
X136650000Y-102580000D03*
X135850000Y-102580000D03*
X135050000Y-102580000D03*
X134250000Y-102580000D03*
X133450000Y-102580000D03*
D61*
X133150000Y-103990000D03*
%TD*%
D50*
%TO.C,C10*%
X142600000Y-81967500D03*
X142600000Y-80832500D03*
%TD*%
D62*
%TO.C,U12*%
X148100000Y-81050000D03*
X148100000Y-80550000D03*
X148100000Y-80050000D03*
X148100000Y-79550000D03*
X148100000Y-79050000D03*
X148100000Y-78550000D03*
X148100000Y-78050000D03*
X148100000Y-77550000D03*
X148100000Y-77050000D03*
X148100000Y-76550000D03*
X148100000Y-76050000D03*
X148100000Y-75550000D03*
X148100000Y-75050000D03*
X148100000Y-74550000D03*
X148600000Y-81050000D03*
X148600000Y-80550000D03*
X148600000Y-80050000D03*
X148600000Y-79550000D03*
X148600000Y-79050000D03*
X148600000Y-78550000D03*
X148600000Y-78050000D03*
X148600000Y-77550000D03*
X148600000Y-77050000D03*
X148600000Y-76550000D03*
X148600000Y-76050000D03*
X148600000Y-75550000D03*
X148600000Y-75050000D03*
X148600000Y-74550000D03*
X149100000Y-81050000D03*
X149100000Y-80550000D03*
X149100000Y-80050000D03*
X149100000Y-79550000D03*
X149100000Y-79050000D03*
X149100000Y-78550000D03*
X149100000Y-78050000D03*
X149100000Y-77550000D03*
X149100000Y-77050000D03*
X149100000Y-76550000D03*
X149100000Y-76050000D03*
X149100000Y-75550000D03*
X149100000Y-75050000D03*
X149100000Y-74550000D03*
X149600000Y-81050000D03*
X149600000Y-80550000D03*
X149600000Y-80050000D03*
X149600000Y-79550000D03*
X149600000Y-75550000D03*
X149600000Y-75050000D03*
X149600000Y-74550000D03*
X150100000Y-81050000D03*
X150100000Y-80550000D03*
X150100000Y-80050000D03*
X150100000Y-79050000D03*
X150100000Y-78550000D03*
X150100000Y-78050000D03*
X150100000Y-77550000D03*
X150100000Y-77050000D03*
X150100000Y-76550000D03*
X150100000Y-75550000D03*
X150100000Y-75050000D03*
X150100000Y-74550000D03*
X150600000Y-81050000D03*
X150600000Y-80550000D03*
X150600000Y-80050000D03*
X150600000Y-79050000D03*
X150600000Y-76550000D03*
X150600000Y-75550000D03*
X150600000Y-75050000D03*
X150600000Y-74550000D03*
X151100000Y-81050000D03*
X151100000Y-80550000D03*
X151100000Y-80050000D03*
X151100000Y-79050000D03*
X151100000Y-76550000D03*
X151100000Y-75550000D03*
X151100000Y-75050000D03*
X151100000Y-74550000D03*
X151600000Y-81050000D03*
X151600000Y-80550000D03*
X151600000Y-80050000D03*
X151600000Y-79050000D03*
X151600000Y-76550000D03*
X151600000Y-75550000D03*
X151600000Y-75050000D03*
X151600000Y-74550000D03*
X152100000Y-81050000D03*
X152100000Y-80550000D03*
X152100000Y-80050000D03*
X152100000Y-79050000D03*
X152100000Y-76550000D03*
X152100000Y-75550000D03*
X152100000Y-75050000D03*
X152100000Y-74550000D03*
X152600000Y-81050000D03*
X152600000Y-80550000D03*
X152600000Y-80050000D03*
X152600000Y-79050000D03*
X152600000Y-78550000D03*
X152600000Y-78050000D03*
X152600000Y-77550000D03*
X152600000Y-77050000D03*
X152600000Y-76550000D03*
X152600000Y-75550000D03*
X152600000Y-75050000D03*
X152600000Y-74550000D03*
X153100000Y-81050000D03*
X153100000Y-80550000D03*
X153100000Y-80050000D03*
X153100000Y-75550000D03*
X153100000Y-75050000D03*
X153100000Y-74550000D03*
X153600000Y-81050000D03*
X153600000Y-80550000D03*
X153600000Y-80050000D03*
X153600000Y-79550000D03*
X153600000Y-79050000D03*
X153600000Y-78550000D03*
X153600000Y-78050000D03*
X153600000Y-77550000D03*
X153600000Y-77050000D03*
X153600000Y-76550000D03*
X153600000Y-76050000D03*
X153600000Y-75550000D03*
X153600000Y-75050000D03*
X153600000Y-74550000D03*
X154100000Y-81050000D03*
X154100000Y-80550000D03*
X154100000Y-80050000D03*
X154100000Y-79550000D03*
X154100000Y-79050000D03*
X154100000Y-78550000D03*
X154100000Y-78050000D03*
X154100000Y-77550000D03*
X154100000Y-77050000D03*
X154100000Y-76550000D03*
X154100000Y-76050000D03*
X154100000Y-75550000D03*
X154100000Y-75050000D03*
X154100000Y-74550000D03*
X154600000Y-81050000D03*
X154600000Y-80550000D03*
X154600000Y-80050000D03*
X154600000Y-79550000D03*
X154600000Y-79050000D03*
X154600000Y-78550000D03*
X154600000Y-78050000D03*
X154600000Y-77550000D03*
X154600000Y-77050000D03*
X154600000Y-76550000D03*
X154600000Y-76050000D03*
X154600000Y-75550000D03*
X154600000Y-75050000D03*
X154600000Y-74550000D03*
%TD*%
D63*
%TO.C,U13*%
X99024999Y-88825002D03*
X99024999Y-90725003D03*
X99024999Y-92625002D03*
X99024999Y-94525001D03*
X99024999Y-96425002D03*
D64*
X101825001Y-99225004D03*
X103725002Y-99225004D03*
X105625001Y-99225004D03*
X107525000Y-99225004D03*
X109425001Y-99225004D03*
D63*
X112225003Y-96425002D03*
X112225003Y-94525001D03*
X112225003Y-92625002D03*
X112225003Y-90725003D03*
X112225003Y-88825002D03*
D64*
X109425001Y-86025000D03*
X107525000Y-86025000D03*
X105625001Y-86025000D03*
X103725002Y-86025000D03*
X101825001Y-86025000D03*
%TD*%
D65*
%TO.C,D2*%
X163700000Y-81150000D03*
X163700000Y-84420000D03*
%TD*%
D39*
%TO.C,R13*%
X118762500Y-70050000D03*
X118762500Y-71070000D03*
%TD*%
D26*
%TO.C,R42*%
X141880000Y-78350000D03*
X142900000Y-78350000D03*
%TD*%
D16*
%TO.C,C53*%
X120960000Y-65250000D03*
X120000000Y-65250000D03*
%TD*%
D66*
%TO.C,FB1*%
X119200000Y-100725000D03*
X119200000Y-98975000D03*
%TD*%
D28*
%TO.C,C41*%
X112300000Y-60820000D03*
X112300000Y-61780000D03*
%TD*%
D12*
%TO.C,R6*%
X155600000Y-104945000D03*
X155600000Y-103750000D03*
%TD*%
D26*
%TO.C,R43*%
X143830000Y-78350000D03*
X144850000Y-78350000D03*
%TD*%
D37*
%TO.C,L2*%
X107335000Y-63450000D03*
X106365000Y-63450000D03*
%TD*%
D50*
%TO.C,C6*%
X122000000Y-91435000D03*
X122000000Y-90300000D03*
%TD*%
D28*
%TO.C,C50*%
X123850000Y-64890000D03*
X123850000Y-65850000D03*
%TD*%
%TO.C,C42*%
X129862500Y-65570000D03*
X129862500Y-66530000D03*
%TD*%
D67*
%TO.C,BT1*%
X102250000Y-105200000D03*
X111650000Y-105200000D03*
%TD*%
D58*
%TO.C,L5*%
X122850000Y-64215000D03*
X122850000Y-65185000D03*
%TD*%
D50*
%TO.C,C21*%
X155600000Y-102567500D03*
X155600000Y-101432500D03*
%TD*%
D14*
%TO.C,C20*%
X150950000Y-93932500D03*
X150950000Y-95067500D03*
%TD*%
D68*
%TO.C,U11*%
X126100000Y-68300000D03*
X126100000Y-69600000D03*
X127400000Y-68300000D03*
X127400000Y-69600000D03*
D69*
X124812500Y-67700000D03*
X124812500Y-68200000D03*
X124812500Y-68700000D03*
X124812500Y-69200000D03*
X124812500Y-69700000D03*
X124812500Y-70200000D03*
D70*
X125500000Y-70887500D03*
X126000000Y-70887500D03*
X126500000Y-70887500D03*
X127000000Y-70887500D03*
X127500000Y-70887500D03*
X128000000Y-70887500D03*
D69*
X128687500Y-70200000D03*
X128687500Y-69700000D03*
X128687500Y-69200000D03*
X128687500Y-68700000D03*
X128687500Y-68200000D03*
X128687500Y-67700000D03*
D70*
X128000000Y-67012500D03*
X127500000Y-67012500D03*
X127000000Y-67012500D03*
X126500000Y-67012500D03*
X126000000Y-67012500D03*
X125500000Y-67012500D03*
%TD*%
D50*
%TO.C,C7*%
X122200000Y-85867500D03*
X122200000Y-84732500D03*
%TD*%
D20*
%TO.C,C15*%
X124817500Y-98250000D03*
X123682500Y-98250000D03*
%TD*%
D50*
%TO.C,C2*%
X120950000Y-92067500D03*
X120950000Y-90932500D03*
%TD*%
D38*
%TO.C,R7*%
X148797500Y-104600000D03*
X147602500Y-104600000D03*
%TD*%
D14*
%TO.C,C47*%
X168400000Y-69682500D03*
X168400000Y-70817500D03*
%TD*%
D28*
%TO.C,C31*%
X125025000Y-107190000D03*
X125025000Y-108150000D03*
%TD*%
D39*
%TO.C,R19*%
X95150000Y-94950000D03*
X95150000Y-95970000D03*
%TD*%
D26*
%TO.C,R40*%
X142930000Y-74550000D03*
X143950000Y-74550000D03*
%TD*%
D59*
%TO.C,D4*%
X148625000Y-88550000D03*
X148625000Y-85550000D03*
%TD*%
D71*
%TO.C,USB1*%
X149328250Y-107600000D03*
X150128250Y-107600000D03*
D72*
X151278250Y-107600000D03*
X152278250Y-107600000D03*
X152778250Y-107600000D03*
X153778250Y-107600000D03*
D71*
X154928250Y-107600000D03*
X155728250Y-107600000D03*
D72*
X154278250Y-107600000D03*
X153278250Y-107600000D03*
X151778250Y-107600000D03*
X150778250Y-107600000D03*
%TD*%
D40*
%TO.C,C35*%
X118351250Y-104028750D03*
X118351250Y-103068750D03*
%TD*%
D50*
%TO.C,C19*%
X120550000Y-100067500D03*
X120550000Y-98932500D03*
%TD*%
D14*
%TO.C,C22*%
X147975000Y-93265000D03*
X147975000Y-94400000D03*
%TD*%
D73*
%TO.C,U8*%
X144480000Y-101370000D03*
X143820000Y-101370000D03*
X143170000Y-101370000D03*
X142520000Y-101370000D03*
X142520000Y-105630000D03*
X143170000Y-105630000D03*
X143820000Y-105630000D03*
X144480000Y-105630000D03*
%TD*%
D50*
%TO.C,C5*%
X122200000Y-83385000D03*
X122200000Y-82250000D03*
%TD*%
D33*
%TO.C,R35*%
X161505000Y-93650000D03*
X162700000Y-93650000D03*
%TD*%
D14*
%TO.C,C34*%
X116950000Y-78415000D03*
X116950000Y-79550000D03*
%TD*%
D17*
%TO.C,R18*%
X168550000Y-107650000D03*
X167530000Y-107650000D03*
%TD*%
D16*
%TO.C,C56*%
X126830000Y-60850000D03*
X125870000Y-60850000D03*
%TD*%
D28*
%TO.C,C45*%
X108300000Y-62520000D03*
X108300000Y-63480000D03*
%TD*%
D14*
%TO.C,C4*%
X157900000Y-79682500D03*
X157900000Y-80817500D03*
%TD*%
D12*
%TO.C,R1*%
X161000000Y-82350000D03*
X161000000Y-81155000D03*
%TD*%
D11*
%TO.C,R11*%
X140820000Y-105720000D03*
X140820000Y-104700000D03*
%TD*%
D28*
%TO.C,C33*%
X125025000Y-105220000D03*
X125025000Y-106180000D03*
%TD*%
D32*
%TO.C,R9*%
X117950000Y-79352500D03*
X117950000Y-80547500D03*
%TD*%
D39*
%TO.C,R22*%
X147000000Y-93200000D03*
X147000000Y-94220000D03*
%TD*%
D16*
%TO.C,C44*%
X128030000Y-73300000D03*
X127070000Y-73300000D03*
%TD*%
D13*
%TO.C,C59*%
X108215001Y-83575002D03*
X109175001Y-83575002D03*
%TD*%
%TO.C,C29*%
X135620000Y-107290000D03*
X136580000Y-107290000D03*
%TD*%
D26*
%TO.C,R44*%
X143730000Y-81850000D03*
X144750000Y-81850000D03*
%TD*%
D39*
%TO.C,R17*%
X99100000Y-101940000D03*
X99100000Y-102960000D03*
%TD*%
D40*
%TO.C,C48*%
X105400000Y-64350000D03*
X105400000Y-63390000D03*
%TD*%
D11*
%TO.C,R39*%
X162150000Y-105260000D03*
X162150000Y-104240000D03*
%TD*%
D50*
%TO.C,C1*%
X146000000Y-92100000D03*
X146000000Y-90965000D03*
%TD*%
%TO.C,C16*%
X149800000Y-94385000D03*
X149800000Y-93250000D03*
%TD*%
%TO.C,C13*%
X157575000Y-91700000D03*
X157575000Y-90565000D03*
%TD*%
D74*
%TO.C,FB2*%
X120262500Y-67850000D03*
X121662500Y-67850000D03*
%TD*%
D37*
%TO.C,D9*%
X148035000Y-95550000D03*
X147065000Y-95550000D03*
%TD*%
D28*
%TO.C,C55*%
X119050000Y-64200000D03*
X119050000Y-65160000D03*
%TD*%
D75*
%TO.C,X2*%
X118750000Y-85200000D03*
X118750000Y-87050000D03*
X120200000Y-87050000D03*
X120200000Y-85200000D03*
%TD*%
D37*
%TO.C,L8*%
X116235000Y-64200000D03*
X115265000Y-64200000D03*
%TD*%
M02*
