%TF.GenerationSoftware,KiCad,Pcbnew,8.0.4*%
%TF.CreationDate,2025-04-02T01:15:25+07:00*%
%TF.ProjectId,FlightCom,466c6967-6874-4436-9f6d-2e6b69636164,rev?*%
%TF.SameCoordinates,Original*%
%TF.FileFunction,Legend,Bot*%
%TF.FilePolarity,Positive*%
%FSLAX46Y46*%
G04 Gerber Fmt 4.6, Leading zero omitted, Abs format (unit mm)*
G04 Created by KiCad (PCBNEW 8.0.4) date 2025-04-02 01:15:25*
%MOMM*%
%LPD*%
G01*
G04 APERTURE LIST*
%ADD10C,0.100000*%
%ADD11C,0.000000*%
G04 APERTURE END LIST*
D10*
G36*
X135138241Y-85850000D02*
G01*
X135138241Y-84474424D01*
X135668736Y-84474424D01*
X135668736Y-84291242D01*
X134418213Y-84291242D01*
X134418213Y-84474424D01*
X134918422Y-84474424D01*
X134918422Y-85850000D01*
X135138241Y-85850000D01*
G37*
G36*
X133875963Y-84693922D02*
G01*
X133977530Y-84706558D01*
X134072365Y-84735275D01*
X134078829Y-84737911D01*
X134166399Y-84787177D01*
X134240404Y-84859839D01*
X134281520Y-84926827D01*
X134303907Y-85022993D01*
X134303907Y-85052791D01*
X134084089Y-85052791D01*
X134084089Y-85022505D01*
X134082045Y-85001685D01*
X134025959Y-84921388D01*
X133960378Y-84889131D01*
X133860362Y-84876448D01*
X133801917Y-84880719D01*
X133708932Y-84912595D01*
X133676474Y-84940292D01*
X133647383Y-85037159D01*
X133647383Y-85144138D01*
X133733356Y-85160258D01*
X133812094Y-85176538D01*
X133919095Y-85202475D01*
X134012770Y-85230233D01*
X134105214Y-85264918D01*
X134197418Y-85313154D01*
X134269545Y-85376256D01*
X134318031Y-85463080D01*
X134334193Y-85568143D01*
X134330724Y-85620568D01*
X134299407Y-85719308D01*
X134235519Y-85797732D01*
X134197045Y-85826119D01*
X134104848Y-85867477D01*
X134000558Y-85881263D01*
X133927722Y-85874531D01*
X133831053Y-85846092D01*
X133809056Y-85836146D01*
X133724120Y-85780498D01*
X133647383Y-85708827D01*
X133641025Y-85750768D01*
X133614166Y-85847557D01*
X133385554Y-85847557D01*
X133414272Y-85751346D01*
X133427564Y-85652651D01*
X133427564Y-85606112D01*
X133427564Y-85507083D01*
X133427564Y-85386915D01*
X133647383Y-85386915D01*
X133653015Y-85452265D01*
X133687438Y-85547138D01*
X133722014Y-85594651D01*
X133799790Y-85657048D01*
X133844861Y-85678686D01*
X133945359Y-85698080D01*
X134029867Y-85680006D01*
X134093859Y-85629692D01*
X134114375Y-85560327D01*
X134103934Y-85507548D01*
X134040125Y-85430879D01*
X133973330Y-85394910D01*
X133878873Y-85361070D01*
X133782913Y-85333788D01*
X133684996Y-85309734D01*
X133647383Y-85301919D01*
X133647383Y-85386915D01*
X133427564Y-85386915D01*
X133427564Y-85083077D01*
X133428721Y-85030207D01*
X133439410Y-84932868D01*
X133474947Y-84837857D01*
X133535397Y-84777651D01*
X133622958Y-84731856D01*
X133642015Y-84724959D01*
X133742966Y-84700652D01*
X133845708Y-84693265D01*
X133875963Y-84693922D01*
G37*
G36*
X133267341Y-85532484D02*
G01*
X133047522Y-85532484D01*
X133047522Y-85551046D01*
X133014137Y-85643512D01*
X133000628Y-85657048D01*
X132908354Y-85693232D01*
X132836008Y-85698080D01*
X132735012Y-85682006D01*
X132673342Y-85647278D01*
X132615762Y-85565219D01*
X132610816Y-85528576D01*
X132654902Y-85440504D01*
X132735868Y-85401081D01*
X132826727Y-85372260D01*
X132888276Y-85352721D01*
X133011863Y-85313642D01*
X133109957Y-85264733D01*
X133186812Y-85193214D01*
X133228195Y-85104231D01*
X133236078Y-85035205D01*
X133220896Y-84937203D01*
X133175353Y-84849092D01*
X133128122Y-84795847D01*
X133041619Y-84737444D01*
X132942243Y-84705387D01*
X132835918Y-84693666D01*
X132810118Y-84693265D01*
X132702416Y-84700336D01*
X132604680Y-84724780D01*
X132517875Y-84777159D01*
X132512142Y-84782658D01*
X132450700Y-84867369D01*
X132423665Y-84965917D01*
X132422260Y-84996615D01*
X132642079Y-84996615D01*
X132642079Y-84976587D01*
X132688485Y-84903803D01*
X132783654Y-84877757D01*
X132818422Y-84876448D01*
X132917325Y-84891085D01*
X132965945Y-84917969D01*
X133015473Y-85003721D01*
X133016259Y-85018108D01*
X132983042Y-85090893D01*
X132895204Y-85134998D01*
X132865317Y-85144626D01*
X132779832Y-85169050D01*
X132716817Y-85187124D01*
X132620633Y-85216924D01*
X132552198Y-85242323D01*
X132484787Y-85283845D01*
X132421739Y-85359051D01*
X132413956Y-85375191D01*
X132391805Y-85472207D01*
X132390997Y-85497801D01*
X132404504Y-85603956D01*
X132445025Y-85697413D01*
X132505303Y-85771353D01*
X132586810Y-85829313D01*
X132688447Y-85865807D01*
X132797133Y-85880297D01*
X132836985Y-85881263D01*
X132941250Y-85874410D01*
X133036406Y-85851703D01*
X133066085Y-85839741D01*
X133152939Y-85785731D01*
X133212630Y-85722505D01*
X133255319Y-85631409D01*
X133267341Y-85532484D01*
G37*
G36*
X131680567Y-84699516D02*
G01*
X131776482Y-84721109D01*
X131807990Y-84733840D01*
X131893719Y-84787055D01*
X131909433Y-84800655D01*
X131972854Y-84879867D01*
X131972854Y-84724528D01*
X132192672Y-84724528D01*
X132192672Y-86287683D01*
X131972854Y-86287683D01*
X131972854Y-85705408D01*
X131961508Y-85724132D01*
X131895673Y-85797732D01*
X131873433Y-85814915D01*
X131783321Y-85860258D01*
X131747219Y-85870411D01*
X131648988Y-85881263D01*
X131571055Y-85875303D01*
X131466907Y-85844018D01*
X131378061Y-85785916D01*
X131311933Y-85711758D01*
X131297322Y-85690181D01*
X131248305Y-85597307D01*
X131214371Y-85493932D01*
X131197050Y-85394862D01*
X131191777Y-85297034D01*
X131411095Y-85297034D01*
X131411174Y-85309633D01*
X131418966Y-85413879D01*
X131442580Y-85510403D01*
X131491695Y-85599406D01*
X131512372Y-85622533D01*
X131594958Y-85679194D01*
X131693440Y-85698080D01*
X131733506Y-85695337D01*
X131830211Y-85658472D01*
X131899581Y-85585729D01*
X131941298Y-85500579D01*
X131965698Y-85399614D01*
X131972854Y-85294103D01*
X131972549Y-85272026D01*
X131963065Y-85173772D01*
X131938171Y-85077215D01*
X131904590Y-85005266D01*
X131836078Y-84929692D01*
X131788127Y-84901881D01*
X131689532Y-84880844D01*
X131669575Y-84881638D01*
X131575587Y-84909437D01*
X131496580Y-84971214D01*
X131476545Y-84995966D01*
X131435221Y-85087570D01*
X131416438Y-85188193D01*
X131411095Y-85297034D01*
X131191777Y-85297034D01*
X131191277Y-85287752D01*
X131191332Y-85277098D01*
X131198030Y-85174020D01*
X131215890Y-85077239D01*
X131248429Y-84978053D01*
X131275701Y-84920607D01*
X131333003Y-84837248D01*
X131410118Y-84768492D01*
X131450109Y-84744421D01*
X131542176Y-84709352D01*
X131641660Y-84697662D01*
X131680567Y-84699516D01*
G37*
G36*
X130602499Y-84702669D02*
G01*
X130700715Y-84730879D01*
X130790810Y-84777896D01*
X130872784Y-84843719D01*
X130909191Y-84883447D01*
X130967443Y-84976320D01*
X131002485Y-85072260D01*
X131022661Y-85181898D01*
X131028122Y-85286775D01*
X131025695Y-85358049D01*
X131012953Y-85456543D01*
X130984282Y-85558691D01*
X130940744Y-85647095D01*
X130872784Y-85731297D01*
X130790810Y-85796907D01*
X130700715Y-85843771D01*
X130602499Y-85871890D01*
X130496161Y-85881263D01*
X130390282Y-85871890D01*
X130292463Y-85843771D01*
X130202704Y-85796907D01*
X130121004Y-85731297D01*
X130084482Y-85691440D01*
X130026047Y-85598261D01*
X129990895Y-85502004D01*
X129970656Y-85392002D01*
X129965177Y-85286775D01*
X130184996Y-85286775D01*
X130185080Y-85298366D01*
X130193392Y-85396150D01*
X130222022Y-85499713D01*
X130270969Y-85585729D01*
X130311131Y-85629506D01*
X130399235Y-85682281D01*
X130496161Y-85698080D01*
X130554902Y-85692704D01*
X130650225Y-85654193D01*
X130722330Y-85585729D01*
X130732741Y-85571395D01*
X130777995Y-85482189D01*
X130801503Y-85385866D01*
X130808304Y-85286775D01*
X130799908Y-85178173D01*
X130771278Y-85075130D01*
X130722330Y-84989288D01*
X130682122Y-84945320D01*
X130593683Y-84892316D01*
X130496161Y-84876448D01*
X130437801Y-84881847D01*
X130342937Y-84920526D01*
X130270969Y-84989288D01*
X130260559Y-85003616D01*
X130215305Y-85092586D01*
X130191797Y-85188394D01*
X130184996Y-85286775D01*
X129965177Y-85286775D01*
X129967612Y-85215739D01*
X129980395Y-85117571D01*
X130009156Y-85015760D01*
X130052830Y-84927647D01*
X130121004Y-84843719D01*
X130202704Y-84777896D01*
X130292463Y-84730879D01*
X130390282Y-84702669D01*
X130496161Y-84693265D01*
X130602499Y-84702669D01*
G37*
G36*
X129542149Y-85850000D02*
G01*
X129761967Y-85850000D01*
X129761967Y-84224319D01*
X129542149Y-84224319D01*
X129542149Y-85850000D01*
G37*
G36*
X128425471Y-85461653D02*
G01*
X128205652Y-85461653D01*
X128205652Y-85487055D01*
X128184036Y-85584996D01*
X128119190Y-85648255D01*
X128024393Y-85680863D01*
X127920010Y-85692974D01*
X127883740Y-85693684D01*
X127786054Y-85681752D01*
X127690971Y-85638333D01*
X127668806Y-85621388D01*
X127606746Y-85544058D01*
X127582682Y-85447623D01*
X127582344Y-85433321D01*
X127607143Y-85333593D01*
X127652686Y-85279448D01*
X127737959Y-85222125D01*
X127831370Y-85175494D01*
X127876901Y-85155861D01*
X127955059Y-85124110D01*
X128049369Y-85081720D01*
X128141510Y-85030979D01*
X128200767Y-84988799D01*
X128272452Y-84917114D01*
X128323377Y-84837857D01*
X128355013Y-84744248D01*
X128363921Y-84652721D01*
X128351900Y-84545808D01*
X128315836Y-84449771D01*
X128255729Y-84364610D01*
X128240823Y-84348883D01*
X128160915Y-84288669D01*
X128059679Y-84248161D01*
X127951784Y-84228698D01*
X127859804Y-84224319D01*
X127749376Y-84230242D01*
X127646091Y-84251065D01*
X127549974Y-84296875D01*
X127523237Y-84319085D01*
X127463406Y-84396892D01*
X127429750Y-84496376D01*
X127425052Y-84556489D01*
X127644870Y-84556489D01*
X127644870Y-84530111D01*
X127671737Y-84469050D01*
X127753314Y-84422644D01*
X127852042Y-84408034D01*
X127877390Y-84407501D01*
X127977537Y-84418949D01*
X128067373Y-84464470D01*
X128080111Y-84476866D01*
X128131854Y-84560380D01*
X128144103Y-84633670D01*
X128120541Y-84730909D01*
X128113328Y-84744068D01*
X128047196Y-84818039D01*
X128027355Y-84831995D01*
X127939204Y-84879600D01*
X127843819Y-84923978D01*
X127835380Y-84927739D01*
X127742079Y-84968283D01*
X127650283Y-85012084D01*
X127562890Y-85063688D01*
X127479923Y-85130511D01*
X127439218Y-85178820D01*
X127392484Y-85264664D01*
X127366196Y-85363708D01*
X127362526Y-85419644D01*
X127374587Y-85522533D01*
X127407387Y-85615561D01*
X127425540Y-85650697D01*
X127484405Y-85732321D01*
X127559393Y-85796209D01*
X127599441Y-85819713D01*
X127692773Y-85854541D01*
X127796188Y-85872345D01*
X127893510Y-85876866D01*
X127995987Y-85872668D01*
X128096480Y-85858353D01*
X128184159Y-85833879D01*
X128276509Y-85785794D01*
X128347542Y-85716765D01*
X128363921Y-85693196D01*
X128405996Y-85600792D01*
X128423968Y-85502597D01*
X128425471Y-85461653D01*
G37*
G36*
X126846685Y-85850000D02*
G01*
X127128053Y-85850000D01*
X127128053Y-85568632D01*
X126846685Y-85568632D01*
X126846685Y-85850000D01*
G37*
G36*
X134668318Y-88836796D02*
G01*
X134448499Y-88836796D01*
X134448499Y-88862198D01*
X134466559Y-88962538D01*
X134512491Y-89052219D01*
X134577085Y-89126176D01*
X134658884Y-89180500D01*
X134685415Y-89192414D01*
X134779733Y-89221195D01*
X134877816Y-89234739D01*
X134939916Y-89236866D01*
X135046247Y-89229585D01*
X135145057Y-89207740D01*
X135236345Y-89171333D01*
X135320110Y-89120362D01*
X135396354Y-89054829D01*
X135420097Y-89029748D01*
X135483347Y-88944735D01*
X135533510Y-88845398D01*
X135565316Y-88751677D01*
X135588035Y-88648010D01*
X135601666Y-88534397D01*
X135606028Y-88436345D01*
X135606210Y-88410837D01*
X135603310Y-88311751D01*
X135591527Y-88196694D01*
X135570681Y-88091417D01*
X135540770Y-87995919D01*
X135492914Y-87894230D01*
X135432006Y-87806623D01*
X135420586Y-87793391D01*
X135347078Y-87722339D01*
X135265774Y-87665988D01*
X135176673Y-87624337D01*
X135079775Y-87597386D01*
X134975081Y-87585136D01*
X134938450Y-87584319D01*
X134835021Y-87590776D01*
X134734290Y-87612345D01*
X134684926Y-87630237D01*
X134598306Y-87680646D01*
X134529076Y-87752373D01*
X134512491Y-87776782D01*
X134468747Y-87866328D01*
X134449062Y-87965590D01*
X134448499Y-87985854D01*
X134668318Y-87985854D01*
X134668318Y-87960453D01*
X134699033Y-87867155D01*
X134701046Y-87864221D01*
X134775969Y-87800607D01*
X134794347Y-87792414D01*
X134890102Y-87769934D01*
X134941870Y-87767501D01*
X135046467Y-87778767D01*
X135147351Y-87818373D01*
X135230462Y-87886495D01*
X135275994Y-87947752D01*
X135324293Y-88044076D01*
X135355235Y-88138927D01*
X135375611Y-88243643D01*
X135384667Y-88341251D01*
X135386392Y-88410348D01*
X135382493Y-88513915D01*
X135368091Y-88625192D01*
X135343077Y-88726185D01*
X135301494Y-88829011D01*
X135275505Y-88875387D01*
X135212979Y-88953392D01*
X135126288Y-89014507D01*
X135022287Y-89047416D01*
X134943335Y-89053684D01*
X134842402Y-89044891D01*
X134747147Y-89005812D01*
X134730355Y-88991158D01*
X134678556Y-88906575D01*
X134668318Y-88836796D01*
G37*
G36*
X134281437Y-87646845D02*
G01*
X134061618Y-87646845D01*
X134061618Y-88638471D01*
X134058489Y-88744315D01*
X134046162Y-88843979D01*
X134022051Y-88915443D01*
X133954846Y-88989135D01*
X133897487Y-89021444D01*
X133801283Y-89050030D01*
X133707466Y-89058080D01*
X133606023Y-89047741D01*
X133528192Y-89021444D01*
X133446943Y-88959429D01*
X133413398Y-88906650D01*
X133387686Y-88803240D01*
X133378760Y-88700226D01*
X133375931Y-88600335D01*
X133375785Y-88568618D01*
X133375785Y-87646845D01*
X133155966Y-87646845D01*
X133155966Y-88619420D01*
X133159005Y-88730006D01*
X133169919Y-88837786D01*
X133191687Y-88935318D01*
X133219469Y-89000928D01*
X133280256Y-89083680D01*
X133359424Y-89150954D01*
X133402163Y-89176782D01*
X133499707Y-89216075D01*
X133604089Y-89236162D01*
X133700139Y-89241263D01*
X133801061Y-89236301D01*
X133906125Y-89219384D01*
X134004954Y-89190460D01*
X134099178Y-89144115D01*
X134179085Y-89075303D01*
X134212561Y-89030237D01*
X134251774Y-88937531D01*
X134271751Y-88836178D01*
X134280361Y-88726818D01*
X134281437Y-88665338D01*
X134281437Y-87646845D01*
G37*
G36*
X132925401Y-89210000D02*
G01*
X132705582Y-89210000D01*
X132705582Y-88553475D01*
X132521912Y-88553475D01*
X132514774Y-88559986D01*
X132441174Y-88636708D01*
X132382079Y-88714570D01*
X132330425Y-88800160D01*
X132115980Y-89210000D01*
X131865875Y-89210000D01*
X132110118Y-88735191D01*
X132120136Y-88716633D01*
X132170690Y-88630655D01*
X132230286Y-88549078D01*
X132276692Y-88510000D01*
X132192693Y-88465764D01*
X132116957Y-88400579D01*
X132068431Y-88336892D01*
X132021702Y-88246217D01*
X131998327Y-88170202D01*
X131988969Y-88082575D01*
X132207327Y-88082575D01*
X132211598Y-88135049D01*
X132243475Y-88230097D01*
X132265817Y-88266449D01*
X132341172Y-88335122D01*
X132423112Y-88362565D01*
X132522889Y-88370293D01*
X132705582Y-88370293D01*
X132705582Y-87834424D01*
X132508722Y-87834424D01*
X132412085Y-87840390D01*
X132318702Y-87870572D01*
X132299112Y-87884579D01*
X132235659Y-87959965D01*
X132224619Y-87984198D01*
X132207327Y-88082575D01*
X131988969Y-88082575D01*
X131987508Y-88068897D01*
X131987712Y-88054609D01*
X132002260Y-87951340D01*
X132039776Y-87854940D01*
X132043079Y-87848759D01*
X132101325Y-87767257D01*
X132181437Y-87703510D01*
X132245751Y-87675946D01*
X132345219Y-87656346D01*
X132446685Y-87651242D01*
X132925401Y-87651242D01*
X132925401Y-89210000D01*
G37*
G36*
X131784298Y-88821653D02*
G01*
X131564480Y-88821653D01*
X131564480Y-88847055D01*
X131542864Y-88944996D01*
X131478018Y-89008255D01*
X131383221Y-89040863D01*
X131278838Y-89052974D01*
X131242568Y-89053684D01*
X131144882Y-89041752D01*
X131049799Y-88998333D01*
X131027634Y-88981388D01*
X130965574Y-88904058D01*
X130941510Y-88807623D01*
X130941172Y-88793321D01*
X130965970Y-88693593D01*
X131011514Y-88639448D01*
X131096787Y-88582125D01*
X131190198Y-88535494D01*
X131235729Y-88515861D01*
X131313886Y-88484110D01*
X131408197Y-88441720D01*
X131500337Y-88390979D01*
X131559595Y-88348799D01*
X131631280Y-88277114D01*
X131682205Y-88197857D01*
X131713840Y-88104248D01*
X131722749Y-88012721D01*
X131710728Y-87905808D01*
X131674664Y-87809771D01*
X131614557Y-87724610D01*
X131599651Y-87708883D01*
X131519743Y-87648669D01*
X131418506Y-87608161D01*
X131310612Y-87588698D01*
X131218632Y-87584319D01*
X131108203Y-87590242D01*
X131004919Y-87611065D01*
X130908802Y-87656875D01*
X130882065Y-87679085D01*
X130822233Y-87756892D01*
X130788578Y-87856376D01*
X130783879Y-87916489D01*
X131003698Y-87916489D01*
X131003698Y-87890111D01*
X131030565Y-87829050D01*
X131112142Y-87782644D01*
X131210869Y-87768034D01*
X131236217Y-87767501D01*
X131336365Y-87778949D01*
X131426200Y-87824470D01*
X131438939Y-87836866D01*
X131490682Y-87920380D01*
X131502930Y-87993670D01*
X131479369Y-88090909D01*
X131472156Y-88104068D01*
X131406023Y-88178039D01*
X131386182Y-88191995D01*
X131298032Y-88239600D01*
X131202647Y-88283978D01*
X131194207Y-88287739D01*
X131100907Y-88328283D01*
X131009110Y-88372084D01*
X130921717Y-88423688D01*
X130838751Y-88490511D01*
X130798046Y-88538820D01*
X130751311Y-88624664D01*
X130725023Y-88723708D01*
X130721353Y-88779644D01*
X130733415Y-88882533D01*
X130766214Y-88975561D01*
X130784368Y-89010697D01*
X130843232Y-89092321D01*
X130918221Y-89156209D01*
X130958269Y-89179713D01*
X131051600Y-89214541D01*
X131155016Y-89232345D01*
X131252337Y-89236866D01*
X131354814Y-89232668D01*
X131455307Y-89218353D01*
X131542986Y-89193879D01*
X131635337Y-89145794D01*
X131706369Y-89076765D01*
X131722749Y-89053196D01*
X131764824Y-88960792D01*
X131782796Y-88862597D01*
X131784298Y-88821653D01*
G37*
G36*
X130518143Y-89210000D02*
G01*
X130298325Y-89210000D01*
X130298325Y-88553475D01*
X130114654Y-88553475D01*
X130107517Y-88559986D01*
X130033917Y-88636708D01*
X129974821Y-88714570D01*
X129923168Y-88800160D01*
X129708722Y-89210000D01*
X129458618Y-89210000D01*
X129702861Y-88735191D01*
X129712878Y-88716633D01*
X129763433Y-88630655D01*
X129823028Y-88549078D01*
X129869434Y-88510000D01*
X129785435Y-88465764D01*
X129709699Y-88400579D01*
X129661173Y-88336892D01*
X129614445Y-88246217D01*
X129591070Y-88170202D01*
X129581712Y-88082575D01*
X129800069Y-88082575D01*
X129804341Y-88135049D01*
X129836217Y-88230097D01*
X129858560Y-88266449D01*
X129933914Y-88335122D01*
X130015854Y-88362565D01*
X130115631Y-88370293D01*
X130298325Y-88370293D01*
X130298325Y-87834424D01*
X130101465Y-87834424D01*
X130004827Y-87840390D01*
X129911444Y-87870572D01*
X129891855Y-87884579D01*
X129828401Y-87959965D01*
X129817362Y-87984198D01*
X129800069Y-88082575D01*
X129581712Y-88082575D01*
X129580251Y-88068897D01*
X129580455Y-88054609D01*
X129595002Y-87951340D01*
X129632519Y-87854940D01*
X129635822Y-87848759D01*
X129694068Y-87767257D01*
X129774180Y-87703510D01*
X129838494Y-87675946D01*
X129937962Y-87656346D01*
X130039427Y-87651242D01*
X130518143Y-87651242D01*
X130518143Y-89210000D01*
G37*
G36*
X129408304Y-88678527D02*
G01*
X129408304Y-88495345D01*
X128783042Y-88495345D01*
X128783042Y-88678527D01*
X129408304Y-88678527D01*
G37*
G36*
X128342428Y-89210000D02*
G01*
X128562247Y-89210000D01*
X128562247Y-87646845D01*
X128342428Y-87646845D01*
X128342428Y-89210000D01*
G37*
G36*
X126999581Y-87662477D02*
G01*
X126784159Y-87662477D01*
X127410397Y-89210000D01*
X127628750Y-89210000D01*
X128214445Y-87662477D01*
X127968248Y-87662477D01*
X127499790Y-88906650D01*
X126999581Y-87662477D01*
G37*
G36*
X125705582Y-89194368D02*
G01*
X125705582Y-87651242D01*
X124814584Y-87651242D01*
X124814584Y-87834424D01*
X125485764Y-87834424D01*
X125485764Y-88339030D01*
X124908374Y-88339030D01*
X124908374Y-88522212D01*
X125485764Y-88522212D01*
X125485764Y-89194368D01*
X125705582Y-89194368D01*
G37*
G36*
X124387648Y-89210000D02*
G01*
X124607466Y-89210000D01*
X124607466Y-87584319D01*
X124387648Y-87584319D01*
X124387648Y-89210000D01*
G37*
G36*
X124140474Y-88084528D02*
G01*
X123920655Y-88084528D01*
X123920655Y-89210000D01*
X124140474Y-89210000D01*
X124140474Y-88084528D01*
G37*
G36*
X124140474Y-87865687D02*
G01*
X124140474Y-87646845D01*
X123920655Y-87646845D01*
X123920655Y-87865687D01*
X124140474Y-87865687D01*
G37*
G36*
X123327628Y-88060135D02*
G01*
X123429909Y-88082460D01*
X123520097Y-88128004D01*
X123574601Y-88172976D01*
X123635612Y-88250611D01*
X123679832Y-88339518D01*
X123683288Y-88348402D01*
X123714064Y-88450091D01*
X123730522Y-88548847D01*
X123736008Y-88653614D01*
X123735512Y-88685715D01*
X123725961Y-88792027D01*
X123704256Y-88888942D01*
X123664567Y-88988196D01*
X123609002Y-89075177D01*
X123567631Y-89121758D01*
X123484688Y-89185707D01*
X123390848Y-89224076D01*
X123286113Y-89236866D01*
X123263232Y-89236312D01*
X123164176Y-89219082D01*
X123072156Y-89173852D01*
X123017588Y-89131048D01*
X122955408Y-89052219D01*
X122955408Y-89107418D01*
X122956326Y-89163431D01*
X122964811Y-89266175D01*
X122993021Y-89365338D01*
X123016111Y-89401265D01*
X123092672Y-89464989D01*
X123142475Y-89483742D01*
X123241660Y-89495764D01*
X123322999Y-89489717D01*
X123417515Y-89459127D01*
X123433315Y-89449777D01*
X123484926Y-89366803D01*
X123484926Y-89336029D01*
X123704745Y-89336029D01*
X123704745Y-89366803D01*
X123695393Y-89431559D01*
X123648080Y-89522142D01*
X123573018Y-89591658D01*
X123482972Y-89637424D01*
X123441413Y-89651535D01*
X123345240Y-89672093D01*
X123240683Y-89678946D01*
X123178607Y-89676375D01*
X123080673Y-89660003D01*
X122986671Y-89625212D01*
X122947476Y-89602984D01*
X122871390Y-89540566D01*
X122807397Y-89458639D01*
X122786710Y-89417759D01*
X122758309Y-89315865D01*
X122744074Y-89211450D01*
X122737342Y-89104426D01*
X122735589Y-89002882D01*
X122735589Y-88625771D01*
X122955408Y-88625771D01*
X122955719Y-88649247D01*
X122964816Y-88748040D01*
X122989699Y-88844669D01*
X123035031Y-88934982D01*
X123060858Y-88969178D01*
X123138277Y-89030964D01*
X123238241Y-89053684D01*
X123289707Y-89048143D01*
X123382833Y-89006789D01*
X123435513Y-88957155D01*
X123483461Y-88868060D01*
X123489310Y-88850465D01*
X123509925Y-88753994D01*
X123516189Y-88651172D01*
X123516110Y-88638926D01*
X123508271Y-88536702D01*
X123484514Y-88439978D01*
X123435101Y-88347334D01*
X123414226Y-88322375D01*
X123331666Y-88261227D01*
X123234333Y-88240844D01*
X123206482Y-88242500D01*
X123110605Y-88278214D01*
X123038450Y-88346845D01*
X122991171Y-88427629D01*
X122963517Y-88524229D01*
X122955408Y-88625771D01*
X122735589Y-88625771D01*
X122735589Y-88087948D01*
X122955408Y-88087948D01*
X122955408Y-88226678D01*
X123012115Y-88157627D01*
X123091695Y-88100648D01*
X123178890Y-88068408D01*
X123276343Y-88057662D01*
X123327628Y-88060135D01*
G37*
G36*
X122242219Y-89210000D02*
G01*
X122462037Y-89210000D01*
X122462037Y-87584319D01*
X122242219Y-87584319D01*
X122242219Y-88228632D01*
X122174647Y-88157860D01*
X122154291Y-88142170D01*
X122070060Y-88092632D01*
X122035589Y-88079155D01*
X121938642Y-88059362D01*
X121896859Y-88057662D01*
X121795498Y-88068653D01*
X121704396Y-88101625D01*
X121623559Y-88159812D01*
X121570551Y-88231074D01*
X121538160Y-88324814D01*
X121525435Y-88424441D01*
X121523168Y-88499741D01*
X121523168Y-89210000D01*
X121742986Y-89210000D01*
X121742986Y-88568618D01*
X121745969Y-88463986D01*
X121761060Y-88364431D01*
X121817267Y-88282632D01*
X121829448Y-88274061D01*
X121925610Y-88241655D01*
X121945708Y-88240844D01*
X122045702Y-88262085D01*
X122089323Y-88285785D01*
X122161406Y-88352412D01*
X122200209Y-88413279D01*
X122230362Y-88506344D01*
X122241562Y-88612353D01*
X122242219Y-88649706D01*
X122242219Y-89210000D01*
G37*
G36*
X120631193Y-89019002D02*
G01*
X120631193Y-89206092D01*
X120729401Y-89227524D01*
X120828503Y-89240713D01*
X120847592Y-89241263D01*
X120947243Y-89230516D01*
X121037124Y-89198276D01*
X121119522Y-89137156D01*
X121166085Y-89072735D01*
X121197991Y-88975405D01*
X121208974Y-88878108D01*
X121210537Y-88815792D01*
X121210537Y-88267711D01*
X121397138Y-88267711D01*
X121397138Y-88084528D01*
X121210537Y-88084528D01*
X121210537Y-87818792D01*
X120990718Y-87818792D01*
X120990718Y-88084528D01*
X120678087Y-88084528D01*
X120678087Y-88267711D01*
X120990718Y-88267711D01*
X120990718Y-88763035D01*
X120987494Y-88863778D01*
X120971179Y-88957941D01*
X120908653Y-89034633D01*
X120812654Y-89057989D01*
X120805094Y-89058080D01*
X120707721Y-89041251D01*
X120631193Y-89019002D01*
G37*
G36*
X118614724Y-88836796D02*
G01*
X118394905Y-88836796D01*
X118394905Y-88862198D01*
X118412965Y-88962538D01*
X118458897Y-89052219D01*
X118523492Y-89126176D01*
X118605290Y-89180500D01*
X118631821Y-89192414D01*
X118726139Y-89221195D01*
X118824222Y-89234739D01*
X118886322Y-89236866D01*
X118992653Y-89229585D01*
X119091463Y-89207740D01*
X119182751Y-89171333D01*
X119266516Y-89120362D01*
X119342760Y-89054829D01*
X119366503Y-89029748D01*
X119429753Y-88944735D01*
X119479916Y-88845398D01*
X119511722Y-88751677D01*
X119534441Y-88648010D01*
X119548073Y-88534397D01*
X119552435Y-88436345D01*
X119552616Y-88410837D01*
X119549716Y-88311751D01*
X119537933Y-88196694D01*
X119517087Y-88091417D01*
X119487176Y-87995919D01*
X119439320Y-87894230D01*
X119378412Y-87806623D01*
X119366992Y-87793391D01*
X119293484Y-87722339D01*
X119212180Y-87665988D01*
X119123079Y-87624337D01*
X119026181Y-87597386D01*
X118921487Y-87585136D01*
X118884856Y-87584319D01*
X118781427Y-87590776D01*
X118680697Y-87612345D01*
X118631332Y-87630237D01*
X118544712Y-87680646D01*
X118475483Y-87752373D01*
X118458897Y-87776782D01*
X118415153Y-87866328D01*
X118395468Y-87965590D01*
X118394905Y-87985854D01*
X118614724Y-87985854D01*
X118614724Y-87960453D01*
X118645439Y-87867155D01*
X118647452Y-87864221D01*
X118722375Y-87800607D01*
X118740753Y-87792414D01*
X118836508Y-87769934D01*
X118888276Y-87767501D01*
X118992873Y-87778767D01*
X119093758Y-87818373D01*
X119176868Y-87886495D01*
X119222400Y-87947752D01*
X119270699Y-88044076D01*
X119301641Y-88138927D01*
X119322017Y-88243643D01*
X119331073Y-88341251D01*
X119332798Y-88410348D01*
X119328899Y-88513915D01*
X119314497Y-88625192D01*
X119289483Y-88726185D01*
X119247901Y-88829011D01*
X119221912Y-88875387D01*
X119159385Y-88953392D01*
X119072694Y-89014507D01*
X118968693Y-89047416D01*
X118889741Y-89053684D01*
X118788808Y-89044891D01*
X118693553Y-89005812D01*
X118676762Y-88991158D01*
X118624962Y-88906575D01*
X118614724Y-88836796D01*
G37*
G36*
X117833483Y-88062669D02*
G01*
X117931699Y-88090879D01*
X118021794Y-88137896D01*
X118103768Y-88203719D01*
X118140175Y-88243447D01*
X118198427Y-88336320D01*
X118233469Y-88432260D01*
X118253645Y-88541898D01*
X118259106Y-88646775D01*
X118256679Y-88718049D01*
X118243936Y-88816543D01*
X118215266Y-88918691D01*
X118171728Y-89007095D01*
X118103768Y-89091297D01*
X118021794Y-89156907D01*
X117931699Y-89203771D01*
X117833483Y-89231890D01*
X117727145Y-89241263D01*
X117621266Y-89231890D01*
X117523447Y-89203771D01*
X117433688Y-89156907D01*
X117351988Y-89091297D01*
X117315466Y-89051440D01*
X117257031Y-88958261D01*
X117221879Y-88862004D01*
X117201640Y-88752002D01*
X117196161Y-88646775D01*
X117415980Y-88646775D01*
X117416064Y-88658366D01*
X117424376Y-88756150D01*
X117453006Y-88859713D01*
X117501953Y-88945729D01*
X117542115Y-88989506D01*
X117630219Y-89042281D01*
X117727145Y-89058080D01*
X117785886Y-89052704D01*
X117881209Y-89014193D01*
X117953314Y-88945729D01*
X117963725Y-88931395D01*
X118008979Y-88842189D01*
X118032487Y-88745866D01*
X118039288Y-88646775D01*
X118030892Y-88538173D01*
X118002262Y-88435130D01*
X117953314Y-88349288D01*
X117913106Y-88305320D01*
X117824667Y-88252316D01*
X117727145Y-88236448D01*
X117668785Y-88241847D01*
X117573921Y-88280526D01*
X117501953Y-88349288D01*
X117491543Y-88363616D01*
X117446289Y-88452586D01*
X117422781Y-88548394D01*
X117415980Y-88646775D01*
X117196161Y-88646775D01*
X117198596Y-88575739D01*
X117211379Y-88477571D01*
X117240140Y-88375760D01*
X117283814Y-88287647D01*
X117351988Y-88203719D01*
X117433688Y-88137896D01*
X117523447Y-88090879D01*
X117621266Y-88062669D01*
X117727145Y-88053265D01*
X117833483Y-88062669D01*
G37*
G36*
X116773133Y-89210000D02*
G01*
X116992951Y-89210000D01*
X116992951Y-88084528D01*
X116773133Y-88084528D01*
X116773133Y-88230586D01*
X116709583Y-88155882D01*
X116693998Y-88142658D01*
X116610833Y-88091001D01*
X116580669Y-88079155D01*
X116484499Y-88059005D01*
X116450732Y-88057662D01*
X116350715Y-88069202D01*
X116318841Y-88078178D01*
X116230518Y-88123652D01*
X116209420Y-88141193D01*
X116147505Y-88220419D01*
X116130286Y-88254033D01*
X116069468Y-88176075D01*
X116033077Y-88143635D01*
X115947897Y-88091245D01*
X115918771Y-88079155D01*
X115822410Y-88058690D01*
X115793719Y-88057662D01*
X115692276Y-88072036D01*
X115621284Y-88103091D01*
X115545343Y-88166564D01*
X115502093Y-88233028D01*
X115473375Y-88328010D01*
X115462093Y-88432155D01*
X115460083Y-88511953D01*
X115460083Y-89210000D01*
X115679902Y-89210000D01*
X115679902Y-88578387D01*
X115681953Y-88472428D01*
X115691717Y-88371209D01*
X115700907Y-88338053D01*
X115757083Y-88265268D01*
X115843545Y-88240844D01*
X115942620Y-88265574D01*
X115978367Y-88288715D01*
X116046335Y-88362484D01*
X116078506Y-88420118D01*
X116107083Y-88520746D01*
X116116013Y-88618657D01*
X116116608Y-88655568D01*
X116116608Y-89210000D01*
X116336427Y-89210000D01*
X116336427Y-88578387D01*
X116338239Y-88472218D01*
X116346868Y-88371025D01*
X116354989Y-88338053D01*
X116413607Y-88265757D01*
X116500069Y-88240844D01*
X116594866Y-88266836D01*
X116631960Y-88291158D01*
X116700283Y-88362788D01*
X116735519Y-88425491D01*
X116763729Y-88524776D01*
X116772802Y-88628645D01*
X116773133Y-88655568D01*
X116773133Y-89210000D01*
G37*
G36*
X114735975Y-88059516D02*
G01*
X114831891Y-88081109D01*
X114863398Y-88093840D01*
X114949127Y-88147055D01*
X114964841Y-88160655D01*
X115028262Y-88239867D01*
X115028262Y-88084528D01*
X115248080Y-88084528D01*
X115248080Y-89647683D01*
X115028262Y-89647683D01*
X115028262Y-89065408D01*
X115016916Y-89084132D01*
X114951081Y-89157732D01*
X114928842Y-89174915D01*
X114838729Y-89220258D01*
X114802627Y-89230411D01*
X114704396Y-89241263D01*
X114626463Y-89235303D01*
X114522316Y-89204018D01*
X114433469Y-89145916D01*
X114367341Y-89071758D01*
X114352730Y-89050181D01*
X114303714Y-88957307D01*
X114269779Y-88853932D01*
X114252458Y-88754862D01*
X114247185Y-88657034D01*
X114466503Y-88657034D01*
X114466582Y-88669633D01*
X114474374Y-88773879D01*
X114497988Y-88870403D01*
X114547103Y-88959406D01*
X114567780Y-88982533D01*
X114650367Y-89039194D01*
X114748848Y-89058080D01*
X114788914Y-89055337D01*
X114885619Y-89018472D01*
X114954989Y-88945729D01*
X114996706Y-88860579D01*
X115021106Y-88759614D01*
X115028262Y-88654103D01*
X115027957Y-88632026D01*
X115018474Y-88533772D01*
X114993579Y-88437215D01*
X114959998Y-88365266D01*
X114891486Y-88289692D01*
X114843535Y-88261881D01*
X114744940Y-88240844D01*
X114724983Y-88241638D01*
X114630995Y-88269437D01*
X114551988Y-88331214D01*
X114531953Y-88355966D01*
X114490629Y-88447570D01*
X114471846Y-88548193D01*
X114466503Y-88657034D01*
X114247185Y-88657034D01*
X114246685Y-88647752D01*
X114246741Y-88637098D01*
X114253438Y-88534020D01*
X114271298Y-88437239D01*
X114303838Y-88338053D01*
X114331109Y-88280607D01*
X114388411Y-88197248D01*
X114465526Y-88128492D01*
X114505517Y-88104421D01*
X114597584Y-88069352D01*
X114697069Y-88057662D01*
X114735975Y-88059516D01*
G37*
G36*
X113365457Y-88084528D02*
G01*
X113145638Y-88084528D01*
X113145638Y-89210000D01*
X113365457Y-89210000D01*
X113365457Y-89070293D01*
X113433898Y-89143596D01*
X113447034Y-89154312D01*
X113530840Y-89206519D01*
X113559874Y-89218792D01*
X113657559Y-89240187D01*
X113687369Y-89241263D01*
X113786445Y-89230700D01*
X113882284Y-89195082D01*
X113945778Y-89151870D01*
X114006406Y-89069123D01*
X114037292Y-88970252D01*
X114050604Y-88858816D01*
X114052267Y-88794787D01*
X114052267Y-88084528D01*
X113832449Y-88084528D01*
X113832449Y-88727376D01*
X113829060Y-88833957D01*
X113815293Y-88933782D01*
X113778227Y-89011186D01*
X113690071Y-89053501D01*
X113641451Y-89058080D01*
X113542266Y-89034612D01*
X113505652Y-89012651D01*
X113435776Y-88940371D01*
X113403558Y-88882714D01*
X113376210Y-88788890D01*
X113366052Y-88683961D01*
X113365457Y-88647264D01*
X113365457Y-88084528D01*
G37*
G36*
X112190160Y-89019002D02*
G01*
X112190160Y-89206092D01*
X112288369Y-89227524D01*
X112387470Y-89240713D01*
X112406559Y-89241263D01*
X112506210Y-89230516D01*
X112596092Y-89198276D01*
X112678489Y-89137156D01*
X112725052Y-89072735D01*
X112756958Y-88975405D01*
X112767941Y-88878108D01*
X112769504Y-88815792D01*
X112769504Y-88267711D01*
X112956106Y-88267711D01*
X112956106Y-88084528D01*
X112769504Y-88084528D01*
X112769504Y-87818792D01*
X112549685Y-87818792D01*
X112549685Y-88084528D01*
X112237055Y-88084528D01*
X112237055Y-88267711D01*
X112549685Y-88267711D01*
X112549685Y-88763035D01*
X112546461Y-88863778D01*
X112530146Y-88957941D01*
X112467620Y-89034633D01*
X112371621Y-89057989D01*
X112364061Y-89058080D01*
X112266688Y-89041251D01*
X112190160Y-89019002D01*
G37*
G36*
X111634141Y-88063982D02*
G01*
X111732937Y-88096130D01*
X111821231Y-88149711D01*
X111899023Y-88224724D01*
X111924863Y-88257641D01*
X111981344Y-88352934D01*
X112015939Y-88445281D01*
X112036695Y-88545996D01*
X112043614Y-88655080D01*
X112043074Y-88686371D01*
X112032679Y-88790573D01*
X112009054Y-88886500D01*
X111965853Y-88985998D01*
X111905373Y-89074689D01*
X111896619Y-89084937D01*
X111818416Y-89155210D01*
X111725680Y-89204662D01*
X111618411Y-89233292D01*
X111512630Y-89241263D01*
X111489602Y-89240923D01*
X111388383Y-89230371D01*
X111291346Y-89202672D01*
X111208020Y-89157986D01*
X111133565Y-89087878D01*
X111099358Y-89035546D01*
X111073482Y-88935959D01*
X111073482Y-88911046D01*
X111293300Y-88911046D01*
X111294493Y-88930765D01*
X111342149Y-89017048D01*
X111400796Y-89046500D01*
X111499441Y-89058080D01*
X111562774Y-89053125D01*
X111656769Y-89021572D01*
X111737822Y-88954521D01*
X111775436Y-88900116D01*
X111811706Y-88808663D01*
X111823796Y-88705394D01*
X111073482Y-88705394D01*
X111073482Y-88626748D01*
X111073714Y-88600304D01*
X111078971Y-88515373D01*
X111261060Y-88515373D01*
X111261060Y-88522212D01*
X111810118Y-88522212D01*
X111803356Y-88491208D01*
X111765502Y-88394476D01*
X111705582Y-88316071D01*
X111626664Y-88258919D01*
X111530216Y-88236448D01*
X111486737Y-88239036D01*
X111390020Y-88269176D01*
X111354996Y-88293257D01*
X111295743Y-88371758D01*
X111277453Y-88415798D01*
X111261060Y-88515373D01*
X111078971Y-88515373D01*
X111080524Y-88490284D01*
X111099147Y-88385259D01*
X111133077Y-88290669D01*
X111152762Y-88254081D01*
X111213877Y-88173685D01*
X111295743Y-88110907D01*
X111328513Y-88094301D01*
X111426233Y-88062778D01*
X111524842Y-88053265D01*
X111634141Y-88063982D01*
G37*
G36*
X110618213Y-89210000D02*
G01*
X110838032Y-89210000D01*
X110838032Y-88084528D01*
X110618213Y-88084528D01*
X110618213Y-88237913D01*
X110552628Y-88159920D01*
X110549337Y-88156824D01*
X110467805Y-88097061D01*
X110433565Y-88080132D01*
X110335439Y-88054551D01*
X110307536Y-88053265D01*
X110210297Y-88070469D01*
X110197138Y-88075736D01*
X110197138Y-88313140D01*
X110289316Y-88278879D01*
X110345638Y-88272107D01*
X110444429Y-88296095D01*
X110529309Y-88357103D01*
X110583485Y-88439673D01*
X110609531Y-88537236D01*
X110618126Y-88647395D01*
X110618213Y-88660942D01*
X110618213Y-89210000D01*
G37*
D11*
%TO.C,LOGO*%
G36*
X140954582Y-82937064D02*
G01*
X140944282Y-82947364D01*
X140933982Y-82937064D01*
X140944282Y-82926764D01*
X140954582Y-82937064D01*
G37*
G36*
X142726196Y-89096513D02*
G01*
X142715896Y-89106813D01*
X142705596Y-89096513D01*
X142715896Y-89086213D01*
X142726196Y-89096513D01*
G37*
G36*
X139965774Y-86765261D02*
G01*
X139965748Y-86774076D01*
X139963362Y-86848509D01*
X139957861Y-86905022D01*
X139950324Y-86931981D01*
X139941547Y-86937321D01*
X139898268Y-86941550D01*
X139839210Y-86933158D01*
X139780327Y-86915229D01*
X139737574Y-86890848D01*
X139714699Y-86860526D01*
X139698162Y-86794760D01*
X139707638Y-86723214D01*
X139742764Y-86661871D01*
X139753920Y-86650909D01*
X139804430Y-86622369D01*
X139876665Y-86614193D01*
X139965774Y-86614193D01*
X139965774Y-86765261D01*
G37*
G36*
X145019942Y-89320290D02*
G01*
X145076559Y-89340568D01*
X145154606Y-89370557D01*
X145245807Y-89407169D01*
X145550916Y-89547452D01*
X145899634Y-89747600D01*
X146227525Y-89980518D01*
X146360728Y-90085320D01*
X146196625Y-90096993D01*
X146148036Y-90100045D01*
X146039365Y-90105287D01*
X145918102Y-90109659D01*
X145802573Y-90112443D01*
X145572624Y-90116221D01*
X145480401Y-89956569D01*
X145429945Y-89872088D01*
X145263075Y-89630194D01*
X145085878Y-89427974D01*
X145069054Y-89410904D01*
X145022992Y-89360887D01*
X144995837Y-89325952D01*
X144993007Y-89312814D01*
X144993033Y-89312814D01*
X145019942Y-89320290D01*
G37*
G36*
X146471935Y-91382843D02*
G01*
X146469890Y-91402202D01*
X146435324Y-91436980D01*
X146368436Y-91490718D01*
X146269424Y-91566957D01*
X146211569Y-91610940D01*
X146147360Y-91658074D01*
X146100801Y-91690241D01*
X146079265Y-91702197D01*
X146067501Y-91692068D01*
X146053672Y-91656083D01*
X146036133Y-91577288D01*
X146017133Y-91485647D01*
X146006874Y-91426330D01*
X146006072Y-91403138D01*
X146006120Y-91403099D01*
X146028365Y-91399830D01*
X146083412Y-91394987D01*
X146163064Y-91389217D01*
X146259124Y-91383167D01*
X146280963Y-91381862D01*
X146377671Y-91376214D01*
X146441262Y-91375361D01*
X146471935Y-91382843D01*
G37*
G36*
X142427494Y-89196200D02*
G01*
X142408862Y-89202638D01*
X142304463Y-89239217D01*
X142209749Y-89273191D01*
X142134496Y-89301014D01*
X142088481Y-89319140D01*
X142052006Y-89333525D01*
X142020052Y-89339035D01*
X141983135Y-89333299D01*
X141930324Y-89314569D01*
X141850689Y-89281095D01*
X141830432Y-89272293D01*
X141793389Y-89253349D01*
X141788831Y-89241053D01*
X141812258Y-89229346D01*
X141837676Y-89221881D01*
X141905220Y-89207096D01*
X141998579Y-89189788D01*
X142108552Y-89171409D01*
X142225934Y-89153409D01*
X142341521Y-89137236D01*
X142446109Y-89124343D01*
X142530495Y-89116178D01*
X142695296Y-89103875D01*
X142427494Y-89196200D01*
G37*
G36*
X145791827Y-89524698D02*
G01*
X145852264Y-89546643D01*
X145938035Y-89582058D01*
X146042877Y-89627999D01*
X146160523Y-89681526D01*
X146284707Y-89739695D01*
X146409166Y-89799564D01*
X146527632Y-89858191D01*
X146633842Y-89912633D01*
X146721529Y-89959948D01*
X146784428Y-89997194D01*
X146856529Y-90043701D01*
X146753528Y-90056124D01*
X146659734Y-90066874D01*
X146584860Y-90071011D01*
X146527732Y-90063785D01*
X146476221Y-90041766D01*
X146418196Y-90001524D01*
X146341525Y-89939629D01*
X146282614Y-89892733D01*
X146179433Y-89814507D01*
X146068168Y-89733623D01*
X145964470Y-89661622D01*
X145954790Y-89655099D01*
X145877004Y-89601933D01*
X145815579Y-89558627D01*
X145776506Y-89529486D01*
X145765776Y-89518816D01*
X145791827Y-89524698D01*
G37*
G36*
X147203145Y-90252850D02*
G01*
X147405561Y-90386333D01*
X147356217Y-90452128D01*
X147321336Y-90498678D01*
X147270608Y-90566432D01*
X147217570Y-90637312D01*
X147211108Y-90645861D01*
X147166949Y-90699412D01*
X147132450Y-90733229D01*
X147114607Y-90740313D01*
X147104279Y-90727842D01*
X147071460Y-90688115D01*
X147022973Y-90629371D01*
X146965019Y-90559124D01*
X146934415Y-90522564D01*
X146859361Y-90436273D01*
X146785230Y-90354888D01*
X146724358Y-90292096D01*
X146720412Y-90288234D01*
X146669486Y-90236115D01*
X146633358Y-90195055D01*
X146619627Y-90173645D01*
X146622714Y-90169338D01*
X146653684Y-90160346D01*
X146707178Y-90156193D01*
X146731926Y-90155341D01*
X146815310Y-90148421D01*
X146897729Y-90137166D01*
X147000730Y-90119366D01*
X147203145Y-90252850D01*
G37*
G36*
X143456938Y-89193085D02*
G01*
X143275739Y-89300105D01*
X143092552Y-89427365D01*
X142932198Y-89558743D01*
X142931384Y-89559478D01*
X142871026Y-89608847D01*
X142825692Y-89631579D01*
X142784682Y-89633066D01*
X142751102Y-89625131D01*
X142684522Y-89604902D01*
X142600701Y-89576500D01*
X142507679Y-89542981D01*
X142413492Y-89507397D01*
X142326180Y-89472805D01*
X142253779Y-89442257D01*
X142204328Y-89418809D01*
X142185865Y-89405515D01*
X142186756Y-89402827D01*
X142213291Y-89385515D01*
X142271766Y-89361066D01*
X142355548Y-89331521D01*
X142458004Y-89298923D01*
X142572500Y-89265315D01*
X142692403Y-89232740D01*
X142811080Y-89203240D01*
X142921898Y-89178857D01*
X143000110Y-89164399D01*
X143137717Y-89143370D01*
X143276445Y-89126532D01*
X143395701Y-89116592D01*
X143622303Y-89104256D01*
X143456938Y-89193085D01*
G37*
G36*
X146746819Y-90467999D02*
G01*
X146753103Y-90474381D01*
X146840935Y-90565183D01*
X146918576Y-90648298D01*
X146981254Y-90718400D01*
X147024198Y-90770163D01*
X147042639Y-90798260D01*
X147044635Y-90811320D01*
X147038060Y-90836202D01*
X147016307Y-90870426D01*
X146975653Y-90918697D01*
X146912373Y-90985720D01*
X146822747Y-91076203D01*
X146588727Y-91309634D01*
X146372425Y-91328072D01*
X146311537Y-91333106D01*
X146213159Y-91340634D01*
X146128949Y-91346373D01*
X146072339Y-91349370D01*
X145988555Y-91352230D01*
X145951521Y-91192579D01*
X145945170Y-91166152D01*
X145912328Y-91044626D01*
X145869218Y-90900953D01*
X145819919Y-90747550D01*
X145768510Y-90596832D01*
X145719073Y-90461218D01*
X145675687Y-90353123D01*
X145613334Y-90208921D01*
X146039230Y-90195586D01*
X146465126Y-90182250D01*
X146746819Y-90467999D01*
G37*
G36*
X141743478Y-89342205D02*
G01*
X141802575Y-89369754D01*
X141850034Y-89394108D01*
X141868396Y-89409637D01*
X141862433Y-89420961D01*
X141836920Y-89432705D01*
X141804728Y-89446573D01*
X141705628Y-89496409D01*
X141584090Y-89564840D01*
X141447365Y-89647209D01*
X141302707Y-89738859D01*
X141157367Y-89835133D01*
X141018597Y-89931374D01*
X140893651Y-90022924D01*
X140789781Y-90105128D01*
X140766961Y-90123991D01*
X140706693Y-90171717D01*
X140660598Y-90205200D01*
X140637205Y-90218125D01*
X140622524Y-90212890D01*
X140576206Y-90190646D01*
X140505067Y-90153963D01*
X140415426Y-90106116D01*
X140313604Y-90050382D01*
X140008678Y-89881543D01*
X140091119Y-89832381D01*
X140140309Y-89804917D01*
X140255528Y-89748326D01*
X140399013Y-89684805D01*
X140563465Y-89617147D01*
X140741586Y-89548144D01*
X140926076Y-89480587D01*
X141109637Y-89417270D01*
X141284970Y-89360984D01*
X141444776Y-89314522D01*
X141595066Y-89273718D01*
X141743478Y-89342205D01*
G37*
G36*
X139952967Y-89910623D02*
G01*
X139984126Y-89923714D01*
X140042351Y-89952513D01*
X140120280Y-89993280D01*
X140210554Y-90042276D01*
X140218088Y-90046431D01*
X140315306Y-90099694D01*
X140406110Y-90148856D01*
X140480634Y-90188608D01*
X140529016Y-90213642D01*
X140608153Y-90252952D01*
X140407680Y-90436938D01*
X140403901Y-90440416D01*
X140323417Y-90517537D01*
X140230593Y-90611158D01*
X140131383Y-90714790D01*
X140031741Y-90821943D01*
X139937622Y-90926127D01*
X139854979Y-91020854D01*
X139789767Y-91099634D01*
X139747939Y-91155978D01*
X139712158Y-91210587D01*
X139599729Y-91101157D01*
X139543143Y-91044377D01*
X139452097Y-90948082D01*
X139356582Y-90842486D01*
X139265035Y-90737162D01*
X139185894Y-90641680D01*
X139127597Y-90565611D01*
X139061925Y-90473550D01*
X139251198Y-90339156D01*
X139300096Y-90305113D01*
X139390841Y-90244299D01*
X139491566Y-90178984D01*
X139595935Y-90113055D01*
X139697609Y-90050398D01*
X139790252Y-89994899D01*
X139867526Y-89950446D01*
X139923095Y-89920923D01*
X139950621Y-89910219D01*
X139952967Y-89910623D01*
G37*
G36*
X144188375Y-89131399D02*
G01*
X144216390Y-89142863D01*
X144216716Y-89143522D01*
X144217369Y-89172413D01*
X144211145Y-89229280D01*
X144199287Y-89302514D01*
X144187538Y-89366650D01*
X144168878Y-89468975D01*
X144147834Y-89584720D01*
X144127106Y-89699067D01*
X144117929Y-89749240D01*
X144100263Y-89839390D01*
X144085814Y-89898171D01*
X144072310Y-89932095D01*
X144057478Y-89947674D01*
X144039045Y-89951419D01*
X143999543Y-89947042D01*
X143927615Y-89934012D01*
X143830924Y-89913907D01*
X143715970Y-89888320D01*
X143589253Y-89858841D01*
X143457273Y-89827061D01*
X143326532Y-89794573D01*
X143203529Y-89762968D01*
X143094765Y-89733836D01*
X143006741Y-89708770D01*
X142945957Y-89689361D01*
X142918913Y-89677199D01*
X142920426Y-89671134D01*
X142945889Y-89644910D01*
X142995168Y-89603825D01*
X143061377Y-89553080D01*
X143137627Y-89497877D01*
X143217031Y-89443418D01*
X143292701Y-89394904D01*
X143378213Y-89345281D01*
X143615799Y-89234394D01*
X143855511Y-89160558D01*
X143865989Y-89158228D01*
X143958795Y-89141566D01*
X144049908Y-89131225D01*
X144129658Y-89127678D01*
X144188375Y-89131399D01*
G37*
G36*
X142235568Y-89547094D02*
G01*
X142318208Y-89578433D01*
X142428847Y-89619344D01*
X142530246Y-89655781D01*
X142607849Y-89682454D01*
X142747005Y-89728246D01*
X142611218Y-89875883D01*
X142543767Y-89952294D01*
X142441889Y-90075508D01*
X142332283Y-90215033D01*
X142223008Y-90360329D01*
X142122122Y-90500857D01*
X142037683Y-90626075D01*
X142019099Y-90654745D01*
X141978283Y-90716500D01*
X141948795Y-90759372D01*
X141936035Y-90775426D01*
X141932502Y-90774471D01*
X141900184Y-90763366D01*
X141841953Y-90742435D01*
X141767082Y-90714995D01*
X141700005Y-90689945D01*
X141543500Y-90629548D01*
X141388497Y-90567271D01*
X141239620Y-90505183D01*
X141101495Y-90445354D01*
X140978745Y-90389855D01*
X140875995Y-90340754D01*
X140797869Y-90300123D01*
X140748991Y-90270031D01*
X140733985Y-90252547D01*
X140738535Y-90245170D01*
X140771517Y-90212799D01*
X140830521Y-90164126D01*
X140909497Y-90103608D01*
X141002396Y-90035706D01*
X141103169Y-89964877D01*
X141205768Y-89895580D01*
X141304144Y-89832274D01*
X141387229Y-89782185D01*
X141509708Y-89712143D01*
X141638397Y-89641800D01*
X141756165Y-89580693D01*
X142002442Y-89457526D01*
X142235568Y-89547094D01*
G37*
G36*
X143995261Y-91316446D02*
G01*
X144064787Y-91321231D01*
X144156980Y-91329368D01*
X144264457Y-91340301D01*
X144350968Y-91349264D01*
X144619201Y-91372936D01*
X144892762Y-91391454D01*
X145160193Y-91404232D01*
X145410032Y-91410683D01*
X145630819Y-91410220D01*
X145950122Y-91403731D01*
X145984154Y-91537632D01*
X146000717Y-91606329D01*
X146014256Y-91669937D01*
X146020204Y-91708107D01*
X146009179Y-91732408D01*
X145964641Y-91774222D01*
X145890378Y-91826743D01*
X145791144Y-91887523D01*
X145671690Y-91954114D01*
X145536770Y-92024066D01*
X145391137Y-92094933D01*
X145239541Y-92164264D01*
X145086737Y-92229612D01*
X144937477Y-92288527D01*
X144796513Y-92338561D01*
X144725826Y-92361125D01*
X144557924Y-92409707D01*
X144377627Y-92456273D01*
X144197710Y-92497794D01*
X144030944Y-92531239D01*
X143890105Y-92553579D01*
X143835159Y-92559402D01*
X143764861Y-92564553D01*
X143701417Y-92567640D01*
X143820904Y-91946809D01*
X143833815Y-91879955D01*
X143862981Y-91730627D01*
X143889567Y-91596823D01*
X143912551Y-91483535D01*
X143930915Y-91395754D01*
X143943637Y-91338469D01*
X143949697Y-91316672D01*
X143955784Y-91315566D01*
X143995261Y-91316446D01*
G37*
G36*
X144419313Y-89162507D02*
G01*
X144485222Y-89184725D01*
X144563674Y-89214849D01*
X144645404Y-89249264D01*
X144721153Y-89284354D01*
X144781657Y-89316506D01*
X144823261Y-89343360D01*
X144927698Y-89424992D01*
X145040959Y-89529385D01*
X145154498Y-89647853D01*
X145259768Y-89771712D01*
X145348223Y-89892276D01*
X145383572Y-89946252D01*
X145426128Y-90013978D01*
X145455233Y-90063811D01*
X145466018Y-90087671D01*
X145458798Y-90092377D01*
X145417469Y-90096722D01*
X145344612Y-90097050D01*
X145246102Y-90093712D01*
X145127816Y-90087060D01*
X144995630Y-90077445D01*
X144855419Y-90065218D01*
X144713059Y-90050731D01*
X144574426Y-90034336D01*
X144504393Y-90025441D01*
X144400069Y-90012420D01*
X144314422Y-90002015D01*
X144254847Y-89995117D01*
X144228737Y-89992620D01*
X144217694Y-89985371D01*
X144209408Y-89952453D01*
X144209992Y-89944262D01*
X144216368Y-89899599D01*
X144228601Y-89826974D01*
X144245235Y-89733998D01*
X144264812Y-89628287D01*
X144285875Y-89517452D01*
X144306966Y-89409107D01*
X144326628Y-89310865D01*
X144343403Y-89230339D01*
X144355835Y-89175144D01*
X144362465Y-89152890D01*
X144375207Y-89151811D01*
X144419313Y-89162507D01*
G37*
G36*
X144231255Y-90090300D02*
G01*
X144291537Y-90097413D01*
X144322814Y-90102225D01*
X144486749Y-90124395D01*
X144674452Y-90145785D01*
X144871628Y-90164981D01*
X145063983Y-90180566D01*
X145237221Y-90191123D01*
X145533728Y-90205248D01*
X145620117Y-90392486D01*
X145620809Y-90393988D01*
X145661693Y-90488410D01*
X145706920Y-90602164D01*
X145754046Y-90728047D01*
X145800628Y-90858857D01*
X145844220Y-90987391D01*
X145882380Y-91106445D01*
X145912663Y-91208817D01*
X145932624Y-91287305D01*
X145939822Y-91334705D01*
X145936720Y-91338977D01*
X145905743Y-91349755D01*
X145852271Y-91357747D01*
X145826127Y-91359844D01*
X145709578Y-91365459D01*
X145563631Y-91368202D01*
X145397425Y-91368129D01*
X145220095Y-91365298D01*
X145040778Y-91359766D01*
X144868613Y-91351590D01*
X144780668Y-91346076D01*
X144647299Y-91336257D01*
X144509973Y-91324721D01*
X144375128Y-91312140D01*
X144249197Y-91299186D01*
X144138616Y-91286532D01*
X144049820Y-91274847D01*
X143989246Y-91264806D01*
X143963328Y-91257079D01*
X143964548Y-91240090D01*
X143972379Y-91188231D01*
X143985932Y-91107690D01*
X144004046Y-91004689D01*
X144025557Y-90885448D01*
X144049305Y-90756189D01*
X144074129Y-90623133D01*
X144098866Y-90492501D01*
X144122354Y-90370515D01*
X144143434Y-90263395D01*
X144160942Y-90177364D01*
X144173717Y-90118641D01*
X144180597Y-90093448D01*
X144190408Y-90090029D01*
X144231255Y-90090300D01*
G37*
G36*
X140677631Y-90301689D02*
G01*
X140707651Y-90311507D01*
X140766062Y-90335590D01*
X140844880Y-90370517D01*
X140936119Y-90412862D01*
X141015212Y-90449178D01*
X141117821Y-90494319D01*
X141233700Y-90543858D01*
X141356461Y-90595204D01*
X141479719Y-90645764D01*
X141597087Y-90692945D01*
X141702180Y-90734154D01*
X141788610Y-90766799D01*
X141849993Y-90788287D01*
X141879940Y-90796026D01*
X141895243Y-90800573D01*
X141899499Y-90826946D01*
X141879332Y-90879390D01*
X141833928Y-90960827D01*
X141803797Y-91012240D01*
X141735460Y-91135336D01*
X141657998Y-91281487D01*
X141576321Y-91441025D01*
X141495342Y-91604282D01*
X141419971Y-91761591D01*
X141355120Y-91903285D01*
X141302709Y-92016900D01*
X141258471Y-92103265D01*
X141224948Y-92157455D01*
X141203931Y-92176237D01*
X141179297Y-92170549D01*
X141120421Y-92147358D01*
X141037767Y-92109518D01*
X140938057Y-92060512D01*
X140828014Y-92003819D01*
X140714362Y-91942922D01*
X140603823Y-91881300D01*
X140503121Y-91822436D01*
X140418978Y-91769810D01*
X140398633Y-91756331D01*
X140303128Y-91690519D01*
X140200724Y-91616543D01*
X140097219Y-91538960D01*
X139998409Y-91462327D01*
X139910089Y-91391202D01*
X139838057Y-91330141D01*
X139788107Y-91283702D01*
X139766038Y-91256442D01*
X139766013Y-91256377D01*
X139767588Y-91234385D01*
X139786174Y-91198663D01*
X139824189Y-91146125D01*
X139884050Y-91073683D01*
X139968175Y-90978249D01*
X140078981Y-90856735D01*
X140092661Y-90841969D01*
X140176487Y-90754160D01*
X140267459Y-90662631D01*
X140360455Y-90572137D01*
X140450358Y-90487432D01*
X140532046Y-90413273D01*
X140600400Y-90354415D01*
X140650301Y-90315613D01*
X140676629Y-90301622D01*
X140677631Y-90301689D01*
G37*
G36*
X142904802Y-89781321D02*
G01*
X142909006Y-89782450D01*
X142962906Y-89797031D01*
X143044877Y-89819315D01*
X143144536Y-89846477D01*
X143251500Y-89875690D01*
X143352022Y-89902214D01*
X143501641Y-89939385D01*
X143653659Y-89975048D01*
X143787105Y-90004173D01*
X143809908Y-90008895D01*
X143906558Y-90029299D01*
X143985846Y-90046656D01*
X144040101Y-90059256D01*
X144061648Y-90065387D01*
X144062343Y-90069211D01*
X144059346Y-90103336D01*
X144050356Y-90164549D01*
X144036735Y-90243130D01*
X144027374Y-90294783D01*
X144009529Y-90395520D01*
X143988112Y-90518233D01*
X143965036Y-90651957D01*
X143942210Y-90785726D01*
X143923567Y-90895021D01*
X143904256Y-91006783D01*
X143887829Y-91100328D01*
X143875600Y-91168183D01*
X143868880Y-91202879D01*
X143861008Y-91231998D01*
X143852599Y-91249230D01*
X143850250Y-91248925D01*
X143818577Y-91243631D01*
X143756089Y-91232763D01*
X143670325Y-91217641D01*
X143568823Y-91199583D01*
X143443515Y-91176194D01*
X143269200Y-91140813D01*
X143090041Y-91101626D01*
X142910555Y-91059850D01*
X142735263Y-91016702D01*
X142568683Y-90973398D01*
X142415332Y-90931157D01*
X142279731Y-90891194D01*
X142166398Y-90854727D01*
X142079851Y-90822972D01*
X142024609Y-90797147D01*
X142005191Y-90778469D01*
X142006547Y-90773368D01*
X142025571Y-90738561D01*
X142063508Y-90679478D01*
X142115832Y-90602502D01*
X142178014Y-90514016D01*
X142245527Y-90420407D01*
X142313844Y-90328057D01*
X142378438Y-90243351D01*
X142434781Y-90172673D01*
X142445020Y-90160347D01*
X142523881Y-90069632D01*
X142611874Y-89973866D01*
X142691799Y-89891845D01*
X142707769Y-89876173D01*
X142766318Y-89819960D01*
X142806363Y-89787004D01*
X142836836Y-89772669D01*
X142866671Y-89772320D01*
X142904802Y-89781321D01*
G37*
G36*
X141989176Y-90840532D02*
G01*
X142036955Y-90854213D01*
X142112294Y-90876650D01*
X142208464Y-90905832D01*
X142318737Y-90939752D01*
X142528917Y-91001739D01*
X142869600Y-91091464D01*
X143221900Y-91172527D01*
X143568027Y-91240641D01*
X143598265Y-91246069D01*
X143695660Y-91263950D01*
X143774962Y-91279111D01*
X143828675Y-91290094D01*
X143849300Y-91295438D01*
X143849216Y-91301545D01*
X143843925Y-91341118D01*
X143832706Y-91412218D01*
X143816623Y-91508874D01*
X143796741Y-91625113D01*
X143774125Y-91754966D01*
X143749840Y-91892459D01*
X143724949Y-92031623D01*
X143700518Y-92166485D01*
X143677612Y-92291074D01*
X143657296Y-92399419D01*
X143640633Y-92485549D01*
X143628689Y-92543491D01*
X143622528Y-92567276D01*
X143619055Y-92569933D01*
X143582922Y-92577538D01*
X143514185Y-92583062D01*
X143419432Y-92586557D01*
X143305252Y-92588079D01*
X143178235Y-92587680D01*
X143044969Y-92585415D01*
X142912045Y-92581338D01*
X142786052Y-92575502D01*
X142673578Y-92567961D01*
X142581212Y-92558769D01*
X142576069Y-92558124D01*
X142236347Y-92505176D01*
X141922790Y-92434482D01*
X141877235Y-92421543D01*
X141794430Y-92395471D01*
X141698425Y-92363184D01*
X141596690Y-92327423D01*
X141496697Y-92290932D01*
X141405918Y-92256454D01*
X141331825Y-92226730D01*
X141281890Y-92204503D01*
X141263585Y-92192516D01*
X141266148Y-92184041D01*
X141282652Y-92143389D01*
X141311918Y-92075912D01*
X141350978Y-91988396D01*
X141396864Y-91887630D01*
X141403616Y-91872986D01*
X141465733Y-91742124D01*
X141533928Y-91604302D01*
X141605512Y-91464404D01*
X141677793Y-91327313D01*
X141748082Y-91197914D01*
X141813687Y-91081090D01*
X141871920Y-90981726D01*
X141920089Y-90904704D01*
X141955505Y-90854910D01*
X141975477Y-90837226D01*
X141989176Y-90840532D01*
G37*
G36*
X142548742Y-82461099D02*
G01*
X142561395Y-82477700D01*
X142558592Y-82489758D01*
X142530028Y-82531936D01*
X142476573Y-82586808D01*
X142405607Y-82648234D01*
X142324509Y-82710074D01*
X142240661Y-82766188D01*
X142161441Y-82810436D01*
X141950194Y-82901137D01*
X141708583Y-82983649D01*
X141447960Y-83054782D01*
X141179251Y-83111555D01*
X140913382Y-83150987D01*
X140825665Y-83159640D01*
X140722291Y-83167328D01*
X140635846Y-83171293D01*
X140579207Y-83171937D01*
X140542085Y-83169364D01*
X140535457Y-83161402D01*
X140553445Y-83146266D01*
X140565641Y-83138013D01*
X140664631Y-83077485D01*
X140757078Y-83036552D01*
X140858871Y-83009493D01*
X140985901Y-82990587D01*
X141108036Y-82973266D01*
X141245849Y-82947404D01*
X141384482Y-82915835D01*
X141518019Y-82880379D01*
X141640543Y-82842857D01*
X141746139Y-82805091D01*
X141828890Y-82768902D01*
X141882879Y-82736112D01*
X141902190Y-82708540D01*
X141900546Y-82693092D01*
X141889452Y-82682793D01*
X141861890Y-82686564D01*
X141811000Y-82705719D01*
X141729920Y-82741576D01*
X141726039Y-82743323D01*
X141616385Y-82785743D01*
X141481579Y-82828100D01*
X141336815Y-82866363D01*
X141197285Y-82896501D01*
X141078183Y-82914484D01*
X140964882Y-82926009D01*
X141118217Y-82851955D01*
X141183268Y-82822159D01*
X141280936Y-82781293D01*
X141390030Y-82738857D01*
X141505007Y-82696664D01*
X141620322Y-82656529D01*
X141730432Y-82620266D01*
X141829794Y-82589688D01*
X141912863Y-82566609D01*
X141974097Y-82552845D01*
X142007950Y-82550207D01*
X142008880Y-82560512D01*
X141997475Y-82573858D01*
X141984590Y-82601281D01*
X141985419Y-82607870D01*
X142004329Y-82617770D01*
X142042106Y-82601962D01*
X142090633Y-82563347D01*
X142133474Y-82531496D01*
X142200626Y-82504030D01*
X142297762Y-82482030D01*
X142329497Y-82476468D01*
X142436475Y-82460422D01*
X142508329Y-82455320D01*
X142548742Y-82461099D01*
G37*
G36*
X146384657Y-83524408D02*
G01*
X146515889Y-83636309D01*
X146561267Y-83678357D01*
X146652879Y-83763245D01*
X146805788Y-83913645D01*
X146862123Y-83970797D01*
X147085821Y-84212161D01*
X147280475Y-84449467D01*
X147453253Y-84692632D01*
X147611322Y-84951569D01*
X147761849Y-85236193D01*
X147902964Y-85540866D01*
X148036640Y-85887219D01*
X148139155Y-86232456D01*
X148212706Y-86585506D01*
X148255237Y-86921704D01*
X148259486Y-86955293D01*
X148281689Y-87350744D01*
X148284673Y-87538428D01*
X148284223Y-87565128D01*
X148279748Y-87830647D01*
X148261136Y-88097405D01*
X148260931Y-88100347D01*
X148226646Y-88358262D01*
X148175322Y-88615123D01*
X148105386Y-88881663D01*
X148015264Y-89168613D01*
X147968780Y-89294675D01*
X147906809Y-89444350D01*
X147834280Y-89607183D01*
X147756094Y-89772790D01*
X147677155Y-89930787D01*
X147602365Y-90070788D01*
X147536627Y-90182409D01*
X147462012Y-90300097D01*
X147272571Y-90169839D01*
X147223826Y-90136674D01*
X146814228Y-89883058D01*
X146378834Y-89655106D01*
X145923913Y-89455117D01*
X145455731Y-89285394D01*
X144980558Y-89148238D01*
X144504660Y-89045950D01*
X144034307Y-88980831D01*
X143904509Y-88970838D01*
X143733106Y-88962849D01*
X143541888Y-88958036D01*
X143341004Y-88956395D01*
X143140604Y-88957919D01*
X142950837Y-88962607D01*
X142781851Y-88970451D01*
X142643796Y-88981449D01*
X142302380Y-89024872D01*
X141770110Y-89124046D01*
X141255490Y-89260070D01*
X140756989Y-89433503D01*
X140273078Y-89644901D01*
X139802228Y-89894822D01*
X139342910Y-90183823D01*
X139313779Y-90203718D01*
X139227594Y-90263652D01*
X139154914Y-90315761D01*
X139102656Y-90355022D01*
X139077736Y-90376412D01*
X139077063Y-90377218D01*
X139052996Y-90397949D01*
X139027820Y-90397814D01*
X138996765Y-90373050D01*
X138955062Y-90319896D01*
X138897941Y-90234588D01*
X138830481Y-90126267D01*
X138665233Y-89824366D01*
X138514713Y-89496412D01*
X138382961Y-89152572D01*
X138274017Y-88803015D01*
X138191922Y-88457908D01*
X138186073Y-88427240D01*
X138157993Y-88241043D01*
X138135975Y-88027452D01*
X138133743Y-87994404D01*
X139388970Y-87994404D01*
X139388970Y-88097405D01*
X139388970Y-88200406D01*
X143200000Y-88200406D01*
X147011030Y-88200406D01*
X147011030Y-88097405D01*
X147011030Y-87994404D01*
X143200000Y-87994404D01*
X139388970Y-87994404D01*
X138133743Y-87994404D01*
X138120462Y-87797741D01*
X138112237Y-87572481D01*
X140480779Y-87572481D01*
X140496324Y-87577386D01*
X140542819Y-87579680D01*
X140609446Y-87578234D01*
X140738114Y-87572101D01*
X140955952Y-87196411D01*
X140976996Y-87160156D01*
X141040539Y-87051153D01*
X141096308Y-86956182D01*
X141141097Y-86880655D01*
X141171703Y-86829987D01*
X141184921Y-86809591D01*
X141188368Y-86811568D01*
X141209297Y-86839712D01*
X141245974Y-86896626D01*
X141295342Y-86977354D01*
X141354343Y-87076940D01*
X141419920Y-87190430D01*
X141643787Y-87582401D01*
X141774705Y-87582401D01*
X141837655Y-87580194D01*
X141883707Y-87573967D01*
X141898756Y-87565128D01*
X141885868Y-87538168D01*
X141854234Y-87479392D01*
X141808071Y-87397296D01*
X141750313Y-87296796D01*
X141683890Y-87182804D01*
X141611735Y-87060235D01*
X141536780Y-86934003D01*
X141461958Y-86809021D01*
X141390200Y-86690203D01*
X141324438Y-86582463D01*
X141267604Y-86490716D01*
X141222631Y-86419875D01*
X141213537Y-86406309D01*
X142252392Y-86406309D01*
X142252392Y-86973755D01*
X142252392Y-87541200D01*
X142396594Y-87541200D01*
X142540795Y-87541200D01*
X142540795Y-87314599D01*
X142540795Y-87087997D01*
X142715896Y-87087997D01*
X142890998Y-87087997D01*
X142890998Y-87314599D01*
X142890998Y-87541200D01*
X143024899Y-87541200D01*
X143158800Y-87541200D01*
X143158800Y-86973713D01*
X143158800Y-86605805D01*
X144023709Y-86605805D01*
X144023743Y-86711494D01*
X144027049Y-86830561D01*
X144033146Y-86953911D01*
X144034550Y-86973713D01*
X144041553Y-87072448D01*
X144051786Y-87177075D01*
X144063365Y-87258695D01*
X144075807Y-87308214D01*
X144123639Y-87394791D01*
X144208707Y-87478727D01*
X144320466Y-87531385D01*
X144329627Y-87534039D01*
X144475297Y-87558852D01*
X144613559Y-87551328D01*
X144738034Y-87513359D01*
X144842344Y-87446835D01*
X144920113Y-87353646D01*
X144921080Y-87351995D01*
X144934753Y-87324864D01*
X144945152Y-87292735D01*
X144952846Y-87249575D01*
X144958402Y-87189349D01*
X144958730Y-87182496D01*
X145820048Y-87182496D01*
X145836071Y-87225000D01*
X145880589Y-87293573D01*
X145961234Y-87393106D01*
X146057651Y-87470247D01*
X146174838Y-87524199D01*
X146196950Y-87531386D01*
X146343999Y-87556839D01*
X146485544Y-87545528D01*
X146616661Y-87501310D01*
X146732427Y-87428046D01*
X146827918Y-87329594D01*
X146898210Y-87209814D01*
X146938381Y-87072564D01*
X146943505Y-86921704D01*
X146934856Y-86862353D01*
X146887138Y-86723012D01*
X146806184Y-86599845D01*
X146697300Y-86499766D01*
X146565793Y-86429688D01*
X146450507Y-86397618D01*
X146315550Y-86392763D01*
X146248609Y-86408191D01*
X146174838Y-86425193D01*
X146063037Y-86478983D01*
X145959694Y-86558300D01*
X145878083Y-86652769D01*
X145827879Y-86753244D01*
X145824991Y-86762960D01*
X145823316Y-86783612D01*
X145838290Y-86794546D01*
X145878097Y-86798846D01*
X145950919Y-86799595D01*
X146022668Y-86798191D01*
X146071634Y-86791224D01*
X146103539Y-86774941D01*
X146130867Y-86745598D01*
X146180714Y-86699208D01*
X146241321Y-86663197D01*
X146330269Y-86639762D01*
X146429928Y-86645451D01*
X146519162Y-86682020D01*
X146593212Y-86743895D01*
X146647321Y-86825503D01*
X146676730Y-86921271D01*
X146676682Y-87025627D01*
X146642419Y-87132997D01*
X146638352Y-87141054D01*
X146576136Y-87230545D01*
X146496718Y-87285224D01*
X146393303Y-87309917D01*
X146307137Y-87308229D01*
X146213251Y-87274705D01*
X146126782Y-87203255D01*
X146105095Y-87182159D01*
X146070242Y-87161442D01*
X146022004Y-87152024D01*
X145946531Y-87149797D01*
X145884779Y-87151085D01*
X145835344Y-87159910D01*
X145820048Y-87182496D01*
X144958730Y-87182496D01*
X144962389Y-87106025D01*
X144965375Y-86993568D01*
X144967929Y-86845945D01*
X144974545Y-86408191D01*
X144851408Y-86408191D01*
X144728271Y-86408191D01*
X144721192Y-86797962D01*
X144720315Y-86845598D01*
X144717681Y-86969739D01*
X144714591Y-87060919D01*
X144710241Y-87125380D01*
X144703828Y-87169364D01*
X144694547Y-87199112D01*
X144681596Y-87220866D01*
X144664171Y-87240866D01*
X144630714Y-87270341D01*
X144583497Y-87289122D01*
X144513465Y-87293998D01*
X144511386Y-87293997D01*
X144444067Y-87291042D01*
X144392024Y-87279317D01*
X144353313Y-87254193D01*
X144325994Y-87211043D01*
X144308126Y-87145239D01*
X144297766Y-87052152D01*
X144292974Y-86927155D01*
X144291809Y-86765620D01*
X144291809Y-86408191D01*
X144169141Y-86408191D01*
X144046474Y-86408191D01*
X144032172Y-86484426D01*
X144027430Y-86522592D01*
X144023709Y-86605805D01*
X143158800Y-86605805D01*
X143158800Y-86406225D01*
X143030049Y-86412359D01*
X142901298Y-86418492D01*
X142895451Y-86639943D01*
X142889604Y-86861395D01*
X142715896Y-86861395D01*
X142542189Y-86861395D01*
X142536342Y-86639943D01*
X142530495Y-86418492D01*
X142391444Y-86412400D01*
X142252392Y-86406309D01*
X141213537Y-86406309D01*
X141192451Y-86374853D01*
X141179996Y-86360566D01*
X141166149Y-86381611D01*
X141134982Y-86433084D01*
X141089495Y-86509841D01*
X141032613Y-86606809D01*
X140967262Y-86718917D01*
X140896369Y-86841095D01*
X140822859Y-86968271D01*
X140819159Y-86974696D01*
X140749658Y-87095374D01*
X140679691Y-87217333D01*
X140615885Y-87329077D01*
X140561164Y-87425535D01*
X140518456Y-87501636D01*
X140490686Y-87552308D01*
X140480779Y-87572481D01*
X138112237Y-87572481D01*
X138111898Y-87563190D01*
X138111729Y-87530310D01*
X139388970Y-87530310D01*
X139390085Y-87531591D01*
X139417270Y-87536356D01*
X139473416Y-87539535D01*
X139548621Y-87540495D01*
X139708272Y-87539790D01*
X139831873Y-87351072D01*
X139955474Y-87162355D01*
X139961397Y-87351778D01*
X139967321Y-87541200D01*
X140090148Y-87541200D01*
X140212976Y-87541200D01*
X140212976Y-86974696D01*
X140212976Y-86408191D01*
X139964954Y-86408191D01*
X139914460Y-86408544D01*
X139786999Y-86414580D01*
X139690260Y-86429994D01*
X139616721Y-86457244D01*
X139558860Y-86498785D01*
X139509156Y-86557076D01*
X139490271Y-86586579D01*
X139472091Y-86632254D01*
X139463336Y-86691876D01*
X139461071Y-86778994D01*
X139466684Y-86875445D01*
X139492311Y-86972910D01*
X139541131Y-87043095D01*
X139615825Y-87091411D01*
X139619560Y-87093096D01*
X139660515Y-87116715D01*
X139677372Y-87136232D01*
X139667939Y-87154427D01*
X139637399Y-87199022D01*
X139590749Y-87262151D01*
X139533171Y-87336614D01*
X139481592Y-87402727D01*
X139433564Y-87465921D01*
X139400976Y-87510752D01*
X139388970Y-87530310D01*
X138111729Y-87530310D01*
X138110726Y-87335074D01*
X138117392Y-87124670D01*
X138132336Y-86943255D01*
X138132415Y-86942586D01*
X138203902Y-86493921D01*
X138310672Y-86064473D01*
X138453860Y-85650410D01*
X138634601Y-85247900D01*
X138781265Y-84955880D01*
X139069667Y-84940604D01*
X139302388Y-84927473D01*
X139667768Y-84902943D01*
X140006549Y-84874684D01*
X140327860Y-84841814D01*
X140640828Y-84803452D01*
X140954582Y-84758718D01*
X141069086Y-84741155D01*
X141164696Y-84725668D01*
X141230227Y-84713295D01*
X141271339Y-84702511D01*
X141293695Y-84691792D01*
X141302956Y-84679614D01*
X141304785Y-84664453D01*
X141304666Y-84661027D01*
X141290778Y-84642376D01*
X141248135Y-84644978D01*
X141247705Y-84645066D01*
X141163057Y-84660528D01*
X141044570Y-84679378D01*
X140899324Y-84700641D01*
X140734400Y-84723342D01*
X140556880Y-84746507D01*
X140373845Y-84769160D01*
X140192376Y-84790326D01*
X140185484Y-84791100D01*
X140047591Y-84805583D01*
X139896591Y-84819812D01*
X139737898Y-84833434D01*
X139576925Y-84846096D01*
X139419086Y-84857447D01*
X139269793Y-84867134D01*
X139134461Y-84874806D01*
X139018503Y-84880108D01*
X138927331Y-84882690D01*
X138866359Y-84882198D01*
X138841001Y-84878282D01*
X138840287Y-84876906D01*
X138849166Y-84850671D01*
X138878565Y-84798875D01*
X138924225Y-84727471D01*
X138981889Y-84642414D01*
X139020654Y-84587440D01*
X141637710Y-84587440D01*
X141643841Y-84614607D01*
X141645467Y-84617217D01*
X141657977Y-84630838D01*
X141680105Y-84632102D01*
X141727088Y-84622447D01*
X141962912Y-84568307D01*
X142298758Y-84488527D01*
X142601812Y-84412708D01*
X142876887Y-84339391D01*
X143128799Y-84267118D01*
X143362361Y-84194428D01*
X143582389Y-84119865D01*
X143793697Y-84041969D01*
X144001098Y-83959281D01*
X144209408Y-83870343D01*
X144282425Y-83838053D01*
X144396203Y-83786522D01*
X144477911Y-83747104D01*
X144531533Y-83717481D01*
X144561050Y-83695338D01*
X144570446Y-83678357D01*
X144563703Y-83664222D01*
X144557875Y-83661143D01*
X144518642Y-83665228D01*
X144446397Y-83690034D01*
X144340049Y-83735912D01*
X144325641Y-83742479D01*
X143900884Y-83924168D01*
X143463695Y-84087843D01*
X143007132Y-84235758D01*
X142524249Y-84370170D01*
X142008104Y-84493333D01*
X141905412Y-84516366D01*
X141801992Y-84540321D01*
X141718921Y-84560404D01*
X141662839Y-84575004D01*
X141640388Y-84582510D01*
X141637710Y-84587440D01*
X139020654Y-84587440D01*
X139047297Y-84549656D01*
X139116190Y-84455150D01*
X139184310Y-84364851D01*
X139247397Y-84284712D01*
X139301192Y-84220686D01*
X139341438Y-84178726D01*
X139352981Y-84170368D01*
X139378872Y-84159774D01*
X139419693Y-84151008D01*
X139480694Y-84143470D01*
X139567126Y-84136565D01*
X139684240Y-84129693D01*
X139837287Y-84122256D01*
X139942183Y-84117298D01*
X140129677Y-84107252D01*
X140293362Y-84096241D01*
X140443954Y-84083147D01*
X140592167Y-84066856D01*
X140748716Y-84046251D01*
X140924317Y-84020215D01*
X141129684Y-83987633D01*
X141153445Y-83983737D01*
X141306387Y-83956605D01*
X141470735Y-83924387D01*
X141641783Y-83888282D01*
X141814819Y-83849489D01*
X141985135Y-83809207D01*
X142148022Y-83768636D01*
X142298769Y-83728976D01*
X142432669Y-83691424D01*
X142545010Y-83657182D01*
X142631085Y-83627448D01*
X142686183Y-83603421D01*
X142705596Y-83586300D01*
X142705049Y-83578943D01*
X142692710Y-83561944D01*
X142659711Y-83559341D01*
X142600214Y-83571505D01*
X142508382Y-83598806D01*
X142363916Y-83642203D01*
X142189130Y-83690464D01*
X141998711Y-83739756D01*
X141805223Y-83786925D01*
X141621227Y-83828815D01*
X141459286Y-83862272D01*
X141426007Y-83868645D01*
X141157334Y-83918229D01*
X140918557Y-83958286D01*
X140700809Y-83989876D01*
X140495224Y-84014054D01*
X140292935Y-84031880D01*
X140085074Y-84044410D01*
X139862774Y-84052702D01*
X139440470Y-84064557D01*
X139594972Y-83906012D01*
X139619042Y-83881691D01*
X139733607Y-83772754D01*
X139868500Y-83652843D01*
X139978398Y-83560219D01*
X140238714Y-83560219D01*
X140240693Y-83567497D01*
X140273176Y-83578286D01*
X140340873Y-83583155D01*
X140440028Y-83582088D01*
X140566883Y-83575071D01*
X140717680Y-83562089D01*
X140745931Y-83559264D01*
X140841045Y-83548737D01*
X140860674Y-83545674D01*
X144797072Y-83545674D01*
X144806158Y-83556035D01*
X144844730Y-83561929D01*
X144898406Y-83533736D01*
X144898677Y-83533531D01*
X144924618Y-83504809D01*
X144914914Y-83479829D01*
X144911514Y-83476700D01*
X144882538Y-83469410D01*
X144838114Y-83491111D01*
X144836279Y-83492330D01*
X144810643Y-83515750D01*
X144803643Y-83522145D01*
X144797072Y-83545674D01*
X140860674Y-83545674D01*
X140902752Y-83539108D01*
X140937260Y-83528679D01*
X140950773Y-83515750D01*
X140949500Y-83498622D01*
X140949185Y-83497761D01*
X140921383Y-83481518D01*
X140860236Y-83480563D01*
X140858876Y-83480689D01*
X140805793Y-83485481D01*
X140723154Y-83492823D01*
X140622002Y-83501738D01*
X140513382Y-83511249D01*
X140437890Y-83518427D01*
X140330558Y-83531959D01*
X140264114Y-83545899D01*
X140238714Y-83560219D01*
X139978398Y-83560219D01*
X140012534Y-83531449D01*
X140154523Y-83418058D01*
X140283280Y-83322160D01*
X140337168Y-83284775D01*
X140385647Y-83256925D01*
X140431932Y-83242322D01*
X140490488Y-83236693D01*
X140575778Y-83235766D01*
X140582178Y-83235757D01*
X140811123Y-83224794D01*
X141058903Y-83194759D01*
X141315560Y-83148024D01*
X141571136Y-83086959D01*
X141815672Y-83013936D01*
X142039210Y-82931324D01*
X142231792Y-82841496D01*
X142328555Y-82782825D01*
X142427245Y-82709677D01*
X142515069Y-82631934D01*
X142583373Y-82557284D01*
X142623503Y-82493419D01*
X142642479Y-82460578D01*
X142677962Y-82437851D01*
X142740792Y-82424665D01*
X142742707Y-82424407D01*
X142808362Y-82418377D01*
X142893267Y-82414380D01*
X142988792Y-82412348D01*
X143086305Y-82412212D01*
X143177175Y-82413905D01*
X143252768Y-82417357D01*
X143304454Y-82422501D01*
X143323601Y-82429269D01*
X143312903Y-82457547D01*
X143278982Y-82508578D01*
X143228933Y-82570983D01*
X143170075Y-82635715D01*
X143109725Y-82693723D01*
X143008017Y-82773306D01*
X142843836Y-82876709D01*
X142646925Y-82979009D01*
X142422010Y-83078158D01*
X142173820Y-83172107D01*
X141907084Y-83258808D01*
X141626528Y-83336215D01*
X141536047Y-83361273D01*
X141464494Y-83388096D01*
X141431255Y-83412261D01*
X141434869Y-83434518D01*
X141454099Y-83435907D01*
X141507242Y-83427634D01*
X141586773Y-83410430D01*
X141685719Y-83386152D01*
X141797107Y-83356653D01*
X141913964Y-83323790D01*
X142029318Y-83289418D01*
X142136196Y-83255393D01*
X142227626Y-83223569D01*
X142374082Y-83166280D01*
X142551284Y-83089516D01*
X142720791Y-83008561D01*
X142871950Y-82928543D01*
X142994111Y-82854589D01*
X143057936Y-82808636D01*
X143157182Y-82725142D01*
X143249950Y-82634181D01*
X143326672Y-82545385D01*
X143377776Y-82468388D01*
X143409833Y-82406396D01*
X143608015Y-82420944D01*
X143625549Y-82422300D01*
X143731707Y-82432642D01*
X143851398Y-82447124D01*
X143975536Y-82464348D01*
X144095034Y-82482916D01*
X144200809Y-82501431D01*
X144283773Y-82518497D01*
X144334841Y-82532716D01*
X144356713Y-82542532D01*
X144364898Y-82555283D01*
X144353986Y-82576857D01*
X144320487Y-82613874D01*
X144260908Y-82672959D01*
X144144515Y-82777388D01*
X143954650Y-82920476D01*
X143731322Y-83063314D01*
X143478840Y-83203198D01*
X143201512Y-83337427D01*
X143176238Y-83348982D01*
X143084759Y-83392862D01*
X143009442Y-83432159D01*
X142957506Y-83462957D01*
X142936174Y-83481339D01*
X142934672Y-83487982D01*
X142943125Y-83500016D01*
X142973866Y-83497363D01*
X143029665Y-83479003D01*
X143113291Y-83443914D01*
X143227514Y-83391075D01*
X143375101Y-83319464D01*
X143484088Y-83264502D01*
X143739124Y-83124336D01*
X143963850Y-82983344D01*
X144154782Y-82843809D01*
X144308438Y-82708010D01*
X144458969Y-82558254D01*
X144658641Y-82617728D01*
X144697109Y-82629370D01*
X144807354Y-82664266D01*
X144915395Y-82700307D01*
X145002514Y-82731308D01*
X145072916Y-82759053D01*
X145166745Y-82798783D01*
X145265918Y-82843020D01*
X145363226Y-82888324D01*
X145451459Y-82931256D01*
X145523408Y-82968376D01*
X145571865Y-82996244D01*
X145589619Y-83011422D01*
X145589618Y-83011456D01*
X145573246Y-83028613D01*
X145528965Y-83063018D01*
X145463511Y-83109694D01*
X145383617Y-83163666D01*
X145383173Y-83163958D01*
X145303341Y-83217885D01*
X145237982Y-83264464D01*
X145193829Y-83298725D01*
X145177616Y-83315699D01*
X145178302Y-83324699D01*
X145188653Y-83338784D01*
X145214770Y-83335550D01*
X145260914Y-83313094D01*
X145331344Y-83269517D01*
X145430320Y-83202916D01*
X145434319Y-83200168D01*
X145519967Y-83141032D01*
X145585573Y-83099229D01*
X145639028Y-83075343D01*
X145688222Y-83069958D01*
X145741046Y-83083659D01*
X145805390Y-83117030D01*
X145889146Y-83170657D01*
X146000203Y-83245122D01*
X146098833Y-83311979D01*
X146249025Y-83419108D01*
X146359412Y-83504809D01*
X146384657Y-83524408D01*
G37*
%TD*%
M02*
